<?xml version="1.0" encoding="utf-8"?>
<!DOCTYPE svg PUBLIC "-//W3C//DTD SVG 1.1//EN" "http://www.w3.org/Graphics/SVG/1.1/DTD/svg11.dtd">
<svg version="1.1" id="Layer_1" xmlns="http://www.w3.org/2000/svg" xmlns:xlink="http://www.w3.org/1999/xlink" x="0px" y="0px"
width="1155px" height="1155px" viewBox="0 0 1155 1155" enable-background="new 0 0 1155 1155" xml:space="preserve">
<rect x="0" y="0" width="1155" height="1155" fill="rgb(250,237,231)" /><g transform="translate(70,70)"><g><defs>
    <linearGradient gradientTransform="rotate(90)" id="grad">
    <stop offset="5%" stop-color="rgb(117,77,50)" />
    <stop offset="95%" stop-color="rgb(87,80,59)" />
    </linearGradient>
<mask id="gmask"><g>
<g transform="translate(280,0) scale(0.35,0.35)"><g transform="" style="fill: rgb(255, 255, 255);">
<g>
	<polygon points="0,5 95,0 100,95 5,100"/>
</g>
</g></g><g transform="translate(350,0) scale(0.35,0.35)"><g transform="" style="fill: rgb(255, 255, 255);">
<g>
	<polygon points="0,12 88,0 100,88 12,100"/>
</g>
</g></g><g transform="translate(385,0) scale(0.35,0.35)"><g transform="" style="fill: rgb(255, 255, 255);">
<polygon points="8,4 4,92 92,96 96,8"/>
</g></g><g transform="translate(420,0) scale(0.35,0.35)"><g transform="" style="fill: rgb(255, 255, 255);">
<g>
	<polygon points="15,5 5,85 85,95 95,15"/>
</g>
</g></g><g transform="translate(490,0) scale(0.35,0.35)"><g transform="" style="fill: rgb(255, 255, 255);">
<g>
	<polygon points="0,15 85,0 100,85 15,100"/>
</g>
</g></g><g transform="translate(560,0) scale(0.35,0.35)"><g transform="" style="fill: rgb(255, 255, 255);">
<g>
	<polygon points="0,5 95,0 100,95 5,100"/>
</g>
</g></g><g transform="translate(630,0) scale(0.35,0.35)"><g transform="" style="fill: rgb(255, 255, 255);">
<g>
	<polygon points="0,15 85,0 100,85 15,100"/>
</g>
</g></g><g transform="translate(700,0) scale(0.35,0.35)"><g transform="" style="fill: rgb(255, 255, 255);">
<g>
	<polygon points="0,15 85,0 100,85 15,100"/>
</g>
</g></g><g transform="translate(280,35) scale(0.35,0.35)"><g transform="" style="fill: rgb(255, 255, 255);">
<polygon points="8,4 4,92 92,96 96,8"/>
</g></g><g transform="translate(350,35) scale(0.35,0.35)"><g transform="" style="fill: rgb(255, 255, 255);">
<g>
	<polygon points="13,0 0,87 87,100 100,13"/>
</g>
</g></g><g transform="translate(385,35) scale(0.35,0.35)"><g transform="" style="fill: rgb(255, 255, 255);">
<g>
	<polygon points="0,17 83,0 100,83 17,100"/>
</g>
</g></g><g transform="translate(560,35) scale(0.35,0.35)"><g transform="" style="fill: rgb(255, 255, 255);">
<polygon points="8,4 4,92 92,96 96,8"/>
</g></g><g transform="translate(665,35) scale(0.35,0.35)"><g transform="" style="fill: rgb(255, 255, 255);">
<g>
	<polygon points="0,5 95,0 100,95 5,100"/>
</g>
</g></g><g transform="translate(280,70) scale(0.35,0.35)"><g transform="" style="fill: rgb(255, 255, 255);">
<g>
	<polygon points="0,10 90,0 100,90 10,100"/>
</g>
</g></g><g transform="translate(455,70) scale(0.35,0.35)"><g transform="" style="fill: rgb(255, 255, 255);">
<g>
	<polygon points="0,5 95,0 100,95 5,100"/>
</g>
</g></g><g transform="translate(525,70) scale(0.35,0.35)"><g transform="" style="fill: rgb(255, 255, 255);">
<g>
	<polygon points="0,12 88,0 100,88 12,100"/>
</g>
</g></g><g transform="translate(560,70) scale(0.35,0.35)"><g transform="" style="fill: rgb(255, 255, 255);">
<g>
	<polygon points="0,17 83,0 100,83 17,100"/>
</g>
</g></g><g transform="translate(665,70) scale(0.35,0.35)"><g transform="" style="fill: rgb(255, 255, 255);">
<g>
	<polygon points="0,10 90,0 100,90 10,100"/>
</g>
</g></g><g transform="translate(315,105) scale(0.35,0.35)"><g transform="" style="fill: rgb(255, 255, 255);">
<g>
	<polygon points="0,5 95,0 100,95 5,100"/>
</g>
</g></g><g transform="translate(455,105) scale(0.35,0.35)"><g transform="" style="fill: rgb(255, 255, 255);">
<g>
	<polygon points="0,10 90,0 100,90 10,100"/>
</g>
</g></g><g transform="translate(525,105) scale(0.35,0.35)"><g transform="" style="fill: rgb(255, 255, 255);">
<g>
	<polygon points="0,10 90,0 100,90 10,100"/>
</g>
</g></g><g transform="translate(595,105) scale(0.35,0.35)"><g transform="" style="fill: rgb(255, 255, 255);">
<g>
	<polygon points="0,5 95,0 100,95 5,100"/>
</g>
</g></g><g transform="translate(700,105) scale(0.35,0.35)"><g transform="" style="fill: rgb(255, 255, 255);">
<g>
	<polygon points="0,15 85,0 100,85 15,100"/>
</g>
</g></g><g transform="translate(280,140) scale(0.35,0.35)"><g transform="" style="fill: rgb(255, 255, 255);">
<g>
	<polygon points="5,25 75,5 95,75 25,95"/>
</g>
</g></g><g transform="translate(315,140) scale(0.35,0.35)"><g transform="" style="fill: rgb(255, 255, 255);">
<polygon points="8,4 4,92 92,96 96,8"/>
</g></g><g transform="translate(420,140) scale(0.35,0.35)"><g transform="" style="fill: rgb(255, 255, 255);">
<g>
	<polygon points="0,15 85,0 100,85 15,100"/>
</g>
</g></g><g transform="translate(490,140) scale(0.35,0.35)"><g transform="" style="fill: rgb(255, 255, 255);">
<g>
	<polygon points="0,15 85,0 100,85 15,100"/>
</g>
</g></g><g transform="translate(560,140) scale(0.35,0.35)"><g transform="" style="fill: rgb(255, 255, 255);">
<g>
	<polygon points="0,12 88,0 100,88 12,100"/>
</g>
</g></g><g transform="translate(595,140) scale(0.35,0.35)"><g transform="" style="fill: rgb(255, 255, 255);">
<polygon points="8,4 4,92 92,96 96,8"/>
</g></g><g transform="translate(630,140) scale(0.35,0.35)"><g transform="" style="fill: rgb(255, 255, 255);">
<polygon points="8,4 4,92 92,96 96,8"/>
</g></g><g transform="translate(665,140) scale(0.35,0.35)"><g transform="" style="fill: rgb(255, 255, 255);">
<g>
	<polygon points="15,5 5,85 85,95 95,15"/>
</g>
</g></g><g transform="translate(315,175) scale(0.35,0.35)"><g transform="" style="fill: rgb(255, 255, 255);">
<g>
	<polygon points="13,0 0,87 87,100 100,13"/>
</g>
</g></g><g transform="translate(350,175) scale(0.35,0.35)"><g transform="" style="fill: rgb(255, 255, 255);">
<g>
	<polygon points="22,0 0,78 78,100 100,22"/>
</g>
</g></g><g transform="translate(560,175) scale(0.35,0.35)"><g transform="" style="fill: rgb(255, 255, 255);">
<polygon points="8,4 4,92 92,96 96,8"/>
</g></g><g transform="translate(700,175) scale(0.35,0.35)"><g transform="" style="fill: rgb(255, 255, 255);">
<g>
	<polygon points="0,5 95,0 100,95 5,100"/>
</g>
</g></g><g transform="translate(280,210) scale(0.35,0.35)"><g transform="" style="fill: rgb(255, 255, 255);">
<g>
	<polygon points="0,15 85,0 100,85 15,100"/>
</g>
</g></g><g transform="translate(350,210) scale(0.35,0.35)"><g transform="" style="fill: rgb(255, 255, 255);">
<polygon points="8,4 4,92 92,96 96,8"/>
</g></g><g transform="translate(420,210) scale(0.35,0.35)"><g transform="" style="fill: rgb(255, 255, 255);">
<g>
	<polygon points="0,5 95,0 100,95 5,100"/>
</g>
</g></g><g transform="translate(490,210) scale(0.35,0.35)"><g transform="" style="fill: rgb(255, 255, 255);">
<g>
	<polygon points="0,15 85,0 100,85 15,100"/>
</g>
</g></g><g transform="translate(560,210) scale(0.35,0.35)"><g transform="" style="fill: rgb(255, 255, 255);">
<polygon points="8,4 4,92 92,96 96,8"/>
</g></g><g transform="translate(630,210) scale(0.35,0.35)"><g transform="" style="fill: rgb(255, 255, 255);">
<g>
	<polygon points="0,5 95,0 100,95 5,100"/>
</g>
</g></g><g transform="translate(700,210) scale(0.35,0.35)"><g transform="" style="fill: rgb(255, 255, 255);">
<polygon points="8,4 4,92 92,96 96,8"/>
</g></g><g transform="translate(315,245) scale(0.35,0.35)"><g transform="" style="fill: rgb(255, 255, 255);">
<g>
	<polygon points="0,12 88,0 100,88 12,100"/>
</g>
</g></g><g transform="translate(350,245) scale(0.35,0.35)"><g transform="" style="fill: rgb(255, 255, 255);">
<g>
	<polygon points="0,17 83,0 100,83 17,100"/>
</g>
</g></g><g transform="translate(420,245) scale(0.35,0.35)"><g transform="" style="fill: rgb(255, 255, 255);">
<polygon points="8,4 4,92 92,96 96,8"/>
</g></g><g transform="translate(455,245) scale(0.35,0.35)"><g transform="" style="fill: rgb(255, 255, 255);">
<g>
	<polygon points="15,5 5,85 85,95 95,15"/>
</g>
</g></g><g transform="translate(525,245) scale(0.35,0.35)"><g transform="" style="fill: rgb(255, 255, 255);">
<g>
	<polygon points="0,12 88,0 100,88 12,100"/>
</g>
</g></g><g transform="translate(560,245) scale(0.35,0.35)"><g transform="" style="fill: rgb(255, 255, 255);">
<polygon points="8,4 4,92 92,96 96,8"/>
</g></g><g transform="translate(630,245) scale(0.35,0.35)"><g transform="" style="fill: rgb(255, 255, 255);">
<g>
	<polygon points="0,10 90,0 100,90 10,100"/>
</g>
</g></g><g transform="translate(700,245) scale(0.35,0.35)"><g transform="" style="fill: rgb(255, 255, 255);">
<g>
	<polygon points="0,10 90,0 100,90 10,100"/>
</g>
</g></g><g transform="translate(0,280) scale(0.35,0.35)"><g transform="" style="fill: rgb(255, 255, 255);">
<g>
	<polygon points="0,15 85,0 100,85 15,100"/>
</g>
</g></g><g transform="translate(105,280) scale(0.35,0.35)"><g transform="" style="fill: rgb(255, 255, 255);">
<g>
	<polygon points="0,12 88,0 100,88 12,100"/>
</g>
</g></g><g transform="translate(140,280) scale(0.35,0.35)"><g transform="" style="fill: rgb(255, 255, 255);">
<polygon points="8,4 4,92 92,96 96,8"/>
</g></g><g transform="translate(175,280) scale(0.35,0.35)"><g transform="" style="fill: rgb(255, 255, 255);">
<polygon points="8,4 4,92 92,96 96,8"/>
</g></g><g transform="translate(210,280) scale(0.35,0.35)"><g transform="" style="fill: rgb(255, 255, 255);">
<polygon points="8,4 4,92 92,96 96,8"/>
</g></g><g transform="translate(245,280) scale(0.35,0.35)"><g transform="" style="fill: rgb(255, 255, 255);">
<polygon points="8,4 4,92 92,96 96,8"/>
</g></g><g transform="translate(280,280) scale(0.35,0.35)"><g transform="" style="fill: rgb(255, 255, 255);">
<polygon points="8,4 4,92 92,96 96,8"/>
</g></g><g transform="translate(315,280) scale(0.35,0.35)"><g transform="" style="fill: rgb(255, 255, 255);">
<polygon points="8,4 4,92 92,96 96,8"/>
</g></g><g transform="translate(385,280) scale(0.35,0.35)"><g transform="" style="fill: rgb(255, 255, 255);">
<g>
	<polygon points="5,25 75,5 95,75 25,95"/>
</g>
</g></g><g transform="translate(420,280) scale(0.35,0.35)"><g transform="" style="fill: rgb(255, 255, 255);">
<polygon points="8,4 4,92 92,96 96,8"/>
</g></g><g transform="translate(490,280) scale(0.35,0.35)"><g transform="" style="fill: rgb(255, 255, 255);">
<g>
	<polygon points="5,25 75,5 95,75 25,95"/>
</g>
</g></g><g transform="translate(525,280) scale(0.35,0.35)"><g transform="" style="fill: rgb(255, 255, 255);">
<polygon points="8,4 4,92 92,96 96,8"/>
</g></g><g transform="translate(560,280) scale(0.35,0.35)"><g transform="" style="fill: rgb(255, 255, 255);">
<polygon points="8,4 4,92 92,96 96,8"/>
</g></g><g transform="translate(595,280) scale(0.35,0.35)"><g transform="" style="fill: rgb(255, 255, 255);">
<g>
	<polygon points="15,5 5,85 85,95 95,15"/>
</g>
</g></g><g transform="translate(735,280) scale(0.35,0.35)"><g transform="" style="fill: rgb(255, 255, 255);">
<g>
	<polygon points="0,5 95,0 100,95 5,100"/>
</g>
</g></g><g transform="translate(840,280) scale(0.35,0.35)"><g transform="" style="fill: rgb(255, 255, 255);">
<g>
	<polygon points="0,5 95,0 100,95 5,100"/>
</g>
</g></g><g transform="translate(910,280) scale(0.35,0.35)"><g transform="" style="fill: rgb(255, 255, 255);">
<g>
	<polygon points="0,12 88,0 100,88 12,100"/>
</g>
</g></g><g transform="translate(945,280) scale(0.35,0.35)"><g transform="" style="fill: rgb(255, 255, 255);">
<polygon points="8,4 4,92 92,96 96,8"/>
</g></g><g transform="translate(980,280) scale(0.35,0.35)"><g transform="" style="fill: rgb(255, 255, 255);">
<g>
	<polygon points="15,5 5,85 85,95 95,15"/>
</g>
</g></g><g transform="translate(70,315) scale(0.35,0.35)"><g transform="" style="fill: rgb(255, 255, 255);">
<g>
	<polygon points="0,12 88,0 100,88 12,100"/>
</g>
</g></g><g transform="translate(105,315) scale(0.35,0.35)"><g transform="" style="fill: rgb(255, 255, 255);">
<polygon points="8,4 4,92 92,96 96,8"/>
</g></g><g transform="translate(280,315) scale(0.35,0.35)"><g transform="" style="fill: rgb(255, 255, 255);">
<polygon points="8,4 4,92 92,96 96,8"/>
</g></g><g transform="translate(315,315) scale(0.35,0.35)"><g transform="" style="fill: rgb(255, 255, 255);">
<polygon points="8,4 4,92 92,96 96,8"/>
</g></g><g transform="translate(420,315) scale(0.35,0.35)"><g transform="" style="fill: rgb(255, 255, 255);">
<g>
	<polygon points="0,10 90,0 100,90 10,100"/>
</g>
</g></g><g transform="translate(525,315) scale(0.35,0.35)"><g transform="" style="fill: rgb(255, 255, 255);">
<polygon points="8,4 4,92 92,96 96,8"/>
</g></g><g transform="translate(665,315) scale(0.35,0.35)"><g transform="" style="fill: rgb(255, 255, 255);">
<g>
	<polygon points="0,15 85,0 100,85 15,100"/>
</g>
</g></g><g transform="translate(735,315) scale(0.35,0.35)"><g transform="" style="fill: rgb(255, 255, 255);">
<polygon points="8,4 4,92 92,96 96,8"/>
</g></g><g transform="translate(805,315) scale(0.35,0.35)"><g transform="" style="fill: rgb(255, 255, 255);">
<g>
	<polygon points="5,25 75,5 95,75 25,95"/>
</g>
</g></g><g transform="translate(840,315) scale(0.35,0.35)"><g transform="" style="fill: rgb(255, 255, 255);">
<polygon points="8,4 4,92 92,96 96,8"/>
</g></g><g transform="translate(910,315) scale(0.35,0.35)"><g transform="" style="fill: rgb(255, 255, 255);">
<polygon points="8,4 4,92 92,96 96,8"/>
</g></g><g transform="translate(945,315) scale(0.35,0.35)"><g transform="" style="fill: rgb(255, 255, 255);">
<g>
	<polygon points="0,17 83,0 100,83 17,100"/>
</g>
</g></g><g transform="translate(0,350) scale(0.35,0.35)"><g transform="" style="fill: rgb(255, 255, 255);">
<g>
	<polygon points="0,12 88,0 100,88 12,100"/>
</g>
</g></g><g transform="translate(35,350) scale(0.35,0.35)"><g transform="" style="fill: rgb(255, 255, 255);">
<polygon points="8,4 4,92 92,96 96,8"/>
</g></g><g transform="translate(70,350) scale(0.35,0.35)"><g transform="" style="fill: rgb(255, 255, 255);">
<polygon points="8,4 4,92 92,96 96,8"/>
</g></g><g transform="translate(105,350) scale(0.35,0.35)"><g transform="" style="fill: rgb(255, 255, 255);">
<polygon points="8,4 4,92 92,96 96,8"/>
</g></g><g transform="translate(140,350) scale(0.35,0.35)"><g transform="" style="fill: rgb(255, 255, 255);">
<polygon points="8,4 4,92 92,96 96,8"/>
</g></g><g transform="translate(175,350) scale(0.35,0.35)"><g transform="" style="fill: rgb(255, 255, 255);">
<polygon points="8,4 4,92 92,96 96,8"/>
</g></g><g transform="translate(210,350) scale(0.35,0.35)"><g transform="" style="fill: rgb(255, 255, 255);">
<polygon points="8,4 4,92 92,96 96,8"/>
</g></g><g transform="translate(245,350) scale(0.35,0.35)"><g transform="" style="fill: rgb(255, 255, 255);">
<polygon points="8,4 4,92 92,96 96,8"/>
</g></g><g transform="translate(280,350) scale(0.35,0.35)"><g transform="" style="fill: rgb(255, 255, 255);">
<polygon points="8,4 4,92 92,96 96,8"/>
</g></g><g transform="translate(315,350) scale(0.35,0.35)"><g transform="" style="fill: rgb(255, 255, 255);">
<polygon points="8,4 4,92 92,96 96,8"/>
</g></g><g transform="translate(350,350) scale(0.35,0.35)"><g transform="" style="fill: rgb(255, 255, 255);">
<g>
	<polygon points="22,0 0,78 78,100 100,22"/>
</g>
</g></g><g transform="translate(490,350) scale(0.35,0.35)"><g transform="" style="fill: rgb(255, 255, 255);">
<g>
	<polygon points="5,25 75,5 95,75 25,95"/>
</g>
</g></g><g transform="translate(525,350) scale(0.35,0.35)"><g transform="" style="fill: rgb(255, 255, 255);">
<polygon points="8,4 4,92 92,96 96,8"/>
</g></g><g transform="translate(560,350) scale(0.35,0.35)"><g transform="" style="fill: rgb(255, 255, 255);">
<g>
	<polygon points="22,0 0,78 78,100 100,22"/>
</g>
</g></g><g transform="translate(630,350) scale(0.35,0.35)"><g transform="" style="fill: rgb(255, 255, 255);">
<g>
	<polygon points="0,5 95,0 100,95 5,100"/>
</g>
</g></g><g transform="translate(735,350) scale(0.35,0.35)"><g transform="" style="fill: rgb(255, 255, 255);">
<g>
	<polygon points="0,10 90,0 100,90 10,100"/>
</g>
</g></g><g transform="translate(840,350) scale(0.35,0.35)"><g transform="" style="fill: rgb(255, 255, 255);">
<g>
	<polygon points="0,10 90,0 100,90 10,100"/>
</g>
</g></g><g transform="translate(910,350) scale(0.35,0.35)"><g transform="" style="fill: rgb(255, 255, 255);">
<g>
	<polygon points="0,10 90,0 100,90 10,100"/>
</g>
</g></g><g transform="translate(0,385) scale(0.35,0.35)"><g transform="" style="fill: rgb(255, 255, 255);">
<polygon points="8,4 4,92 92,96 96,8"/>
</g></g><g transform="translate(70,385) scale(0.35,0.35)"><g transform="" style="fill: rgb(255, 255, 255);">
<polygon points="8,4 4,92 92,96 96,8"/>
</g></g><g transform="translate(245,385) scale(0.35,0.35)"><g transform="" style="fill: rgb(255, 255, 255);">
<polygon points="8,4 4,92 92,96 96,8"/>
</g></g><g transform="translate(350,385) scale(0.35,0.35)"><g transform="" style="fill: rgb(255, 255, 255);">
<g>
	<polygon points="13,0 0,87 87,100 100,13"/>
</g>
</g></g><g transform="translate(385,385) scale(0.35,0.35)"><g transform="" style="fill: rgb(255, 255, 255);">
<polygon points="8,4 4,92 92,96 96,8"/>
</g></g><g transform="translate(420,385) scale(0.35,0.35)"><g transform="" style="fill: rgb(255, 255, 255);">
<g>
	<polygon points="15,5 5,85 85,95 95,15"/>
</g>
</g></g><g transform="translate(560,385) scale(0.35,0.35)"><g transform="" style="fill: rgb(255, 255, 255);">
<polygon points="8,4 4,92 92,96 96,8"/>
</g></g><g transform="translate(595,385) scale(0.35,0.35)"><g transform="" style="fill: rgb(255, 255, 255);">
<polygon points="8,4 4,92 92,96 96,8"/>
</g></g><g transform="translate(630,385) scale(0.35,0.35)"><g transform="" style="fill: rgb(255, 255, 255);">
<polygon points="8,4 4,92 92,96 96,8"/>
</g></g><g transform="translate(665,385) scale(0.35,0.35)"><g transform="" style="fill: rgb(255, 255, 255);">
<g>
	<polygon points="22,0 0,78 78,100 100,22"/>
</g>
</g></g><g transform="translate(875,385) scale(0.35,0.35)"><g transform="" style="fill: rgb(255, 255, 255);">
<g>
	<polygon points="0,15 85,0 100,85 15,100"/>
</g>
</g></g><g transform="translate(980,385) scale(0.35,0.35)"><g transform="" style="fill: rgb(255, 255, 255);">
<g>
	<polygon points="0,5 95,0 100,95 5,100"/>
</g>
</g></g><g transform="translate(0,420) scale(0.35,0.35)"><g transform="" style="fill: rgb(255, 255, 255);">
<g>
	<polygon points="13,0 0,87 87,100 100,13"/>
</g>
</g></g><g transform="translate(35,420) scale(0.35,0.35)"><g transform="" style="fill: rgb(255, 255, 255);">
<polygon points="8,4 4,92 92,96 96,8"/>
</g></g><g transform="translate(70,420) scale(0.35,0.35)"><g transform="" style="fill: rgb(255, 255, 255);">
<polygon points="8,4 4,92 92,96 96,8"/>
</g></g><g transform="translate(105,420) scale(0.35,0.35)"><g transform="" style="fill: rgb(255, 255, 255);">
<g>
	<polygon points="15,5 5,85 85,95 95,15"/>
</g>
</g></g><g transform="translate(210,420) scale(0.35,0.35)"><g transform="" style="fill: rgb(255, 255, 255);">
<g>
	<polygon points="5,25 75,5 95,75 25,95"/>
</g>
</g></g><g transform="translate(245,420) scale(0.35,0.35)"><g transform="" style="fill: rgb(255, 255, 255);">
<g>
	<polygon points="0,17 83,0 100,83 17,100"/>
</g>
</g></g><g transform="translate(315,420) scale(0.35,0.35)"><g transform="" style="fill: rgb(255, 255, 255);">
<g>
	<polygon points="0,5 95,0 100,95 5,100"/>
</g>
</g></g><g transform="translate(560,420) scale(0.35,0.35)"><g transform="" style="fill: rgb(255, 255, 255);">
<polygon points="8,4 4,92 92,96 96,8"/>
</g></g><g transform="translate(665,420) scale(0.35,0.35)"><g transform="" style="fill: rgb(255, 255, 255);">
<g>
	<polygon points="0,10 90,0 100,90 10,100"/>
</g>
</g></g><g transform="translate(770,420) scale(0.35,0.35)"><g transform="" style="fill: rgb(255, 255, 255);">
<g>
	<polygon points="0,12 88,0 100,88 12,100"/>
</g>
</g></g><g transform="translate(805,420) scale(0.35,0.35)"><g transform="" style="fill: rgb(255, 255, 255);">
<g>
	<polygon points="15,5 5,85 85,95 95,15"/>
</g>
</g></g><g transform="translate(980,420) scale(0.35,0.35)"><g transform="" style="fill: rgb(255, 255, 255);">
<polygon points="8,4 4,92 92,96 96,8"/>
</g></g><g transform="translate(35,455) scale(0.35,0.35)"><g transform="" style="fill: rgb(255, 255, 255);">
<g>
	<polygon points="13,0 0,87 87,100 100,13"/>
</g>
</g></g><g transform="translate(70,455) scale(0.35,0.35)"><g transform="" style="fill: rgb(255, 255, 255);">
<g>
	<polygon points="0,17 83,0 100,83 17,100"/>
</g>
</g></g><g transform="translate(140,455) scale(0.35,0.35)"><g transform="" style="fill: rgb(255, 255, 255);">
<g>
	<polygon points="5,25 75,5 95,75 25,95"/>
</g>
</g></g><g transform="translate(175,455) scale(0.35,0.35)"><g transform="" style="fill: rgb(255, 255, 255);">
<g>
	<polygon points="22,0 0,78 78,100 100,22"/>
</g>
</g></g><g transform="translate(315,455) scale(0.35,0.35)"><g transform="" style="fill: rgb(255, 255, 255);">
<g>
	<polygon points="13,0 0,87 87,100 100,13"/>
</g>
</g></g><g transform="translate(350,455) scale(0.35,0.35)"><g transform="" style="fill: rgb(255, 255, 255);">
<g>
	<polygon points="22,0 0,78 78,100 100,22"/>
</g>
</g></g><g transform="translate(455,455) scale(0.35,0.35)"><g transform="" style="fill: rgb(255, 255, 255);">
<g>
	<polygon points="0,5 95,0 100,95 5,100"/>
</g>
</g></g><g transform="translate(525,455) scale(0.35,0.35)"><g transform="" style="fill: rgb(255, 255, 255);">
<g>
	<polygon points="0,12 88,0 100,88 12,100"/>
</g>
</g></g><g transform="translate(560,455) scale(0.35,0.35)"><g transform="" style="fill: rgb(255, 255, 255);">
<polygon points="8,4 4,92 92,96 96,8"/>
</g></g><g transform="translate(630,455) scale(0.35,0.35)"><g transform="" style="fill: rgb(255, 255, 255);">
<g>
	<polygon points="0,5 95,0 100,95 5,100"/>
</g>
</g></g><g transform="translate(770,455) scale(0.35,0.35)"><g transform="" style="fill: rgb(255, 255, 255);">
<g>
	<polygon points="0,10 90,0 100,90 10,100"/>
</g>
</g></g><g transform="translate(840,455) scale(0.35,0.35)"><g transform="" style="fill: rgb(255, 255, 255);">
<g>
	<polygon points="5,25 75,5 95,75 25,95"/>
</g>
</g></g><g transform="translate(875,455) scale(0.35,0.35)"><g transform="" style="fill: rgb(255, 255, 255);">
<polygon points="8,4 4,92 92,96 96,8"/>
</g></g><g transform="translate(910,455) scale(0.35,0.35)"><g transform="" style="fill: rgb(255, 255, 255);">
<polygon points="8,4 4,92 92,96 96,8"/>
</g></g><g transform="translate(945,455) scale(0.35,0.35)"><g transform="" style="fill: rgb(255, 255, 255);">
<polygon points="8,4 4,92 92,96 96,8"/>
</g></g><g transform="translate(980,455) scale(0.35,0.35)"><g transform="" style="fill: rgb(255, 255, 255);">
<polygon points="8,4 4,92 92,96 96,8"/>
</g></g><g transform="translate(0,490) scale(0.35,0.35)"><g transform="" style="fill: rgb(255, 255, 255);">
<g>
	<polygon points="0,5 95,0 100,95 5,100"/>
</g>
</g></g><g transform="translate(175,490) scale(0.35,0.35)"><g transform="" style="fill: rgb(255, 255, 255);">
<polygon points="8,4 4,92 92,96 96,8"/>
</g></g><g transform="translate(210,490) scale(0.35,0.35)"><g transform="" style="fill: rgb(255, 255, 255);">
<g>
	<polygon points="15,5 5,85 85,95 95,15"/>
</g>
</g></g><g transform="translate(350,490) scale(0.35,0.35)"><g transform="" style="fill: rgb(255, 255, 255);">
<polygon points="8,4 4,92 92,96 96,8"/>
</g></g><g transform="translate(385,490) scale(0.35,0.35)"><g transform="" style="fill: rgb(255, 255, 255);">
<g>
	<polygon points="22,0 0,78 78,100 100,22"/>
</g>
</g></g><g transform="translate(455,490) scale(0.35,0.35)"><g transform="" style="fill: rgb(255, 255, 255);">
<g>
	<polygon points="0,10 90,0 100,90 10,100"/>
</g>
</g></g><g transform="translate(525,490) scale(0.35,0.35)"><g transform="" style="fill: rgb(255, 255, 255);">
<g>
	<polygon points="13,0 0,87 87,100 100,13"/>
</g>
</g></g><g transform="translate(560,490) scale(0.35,0.35)"><g transform="" style="fill: rgb(255, 255, 255);">
<g>
	<polygon points="0,17 83,0 100,83 17,100"/>
</g>
</g></g><g transform="translate(630,490) scale(0.35,0.35)"><g transform="" style="fill: rgb(255, 255, 255);">
<g>
	<polygon points="13,0 0,87 87,100 100,13"/>
</g>
</g></g><g transform="translate(665,490) scale(0.35,0.35)"><g transform="" style="fill: rgb(255, 255, 255);">
<polygon points="8,4 4,92 92,96 96,8"/>
</g></g><g transform="translate(700,490) scale(0.35,0.35)"><g transform="" style="fill: rgb(255, 255, 255);">
<g>
	<polygon points="22,0 0,78 78,100 100,22"/>
</g>
</g></g><g transform="translate(910,490) scale(0.35,0.35)"><g transform="" style="fill: rgb(255, 255, 255);">
<polygon points="8,4 4,92 92,96 96,8"/>
</g></g><g transform="translate(980,490) scale(0.35,0.35)"><g transform="" style="fill: rgb(255, 255, 255);">
<polygon points="8,4 4,92 92,96 96,8"/>
</g></g><g transform="translate(0,525) scale(0.35,0.35)"><g transform="" style="fill: rgb(255, 255, 255);">
<g>
	<polygon points="13,0 0,87 87,100 100,13"/>
</g>
</g></g><g transform="translate(35,525) scale(0.35,0.35)"><g transform="" style="fill: rgb(255, 255, 255);">
<polygon points="8,4 4,92 92,96 96,8"/>
</g></g><g transform="translate(70,525) scale(0.35,0.35)"><g transform="" style="fill: rgb(255, 255, 255);">
<polygon points="8,4 4,92 92,96 96,8"/>
</g></g><g transform="translate(105,525) scale(0.35,0.35)"><g transform="" style="fill: rgb(255, 255, 255);">
<g>
	<polygon points="22,0 0,78 78,100 100,22"/>
</g>
</g></g><g transform="translate(175,525) scale(0.35,0.35)"><g transform="" style="fill: rgb(255, 255, 255);">
<polygon points="8,4 4,92 92,96 96,8"/>
</g></g><g transform="translate(280,525) scale(0.35,0.35)"><g transform="" style="fill: rgb(255, 255, 255);">
<g>
	<polygon points="0,5 95,0 100,95 5,100"/>
</g>
</g></g><g transform="translate(350,525) scale(0.35,0.35)"><g transform="" style="fill: rgb(255, 255, 255);">
<g>
	<polygon points="13,0 0,87 87,100 100,13"/>
</g>
</g></g><g transform="translate(385,525) scale(0.35,0.35)"><g transform="" style="fill: rgb(255, 255, 255);">
<polygon points="8,4 4,92 92,96 96,8"/>
</g></g><g transform="translate(490,525) scale(0.35,0.35)"><g transform="" style="fill: rgb(255, 255, 255);">
<g>
	<polygon points="0,5 95,0 100,95 5,100"/>
</g>
</g></g><g transform="translate(700,525) scale(0.35,0.35)"><g transform="" style="fill: rgb(255, 255, 255);">
<polygon points="8,4 4,92 92,96 96,8"/>
</g></g><g transform="translate(735,525) scale(0.35,0.35)"><g transform="" style="fill: rgb(255, 255, 255);">
<g>
	<polygon points="15,5 5,85 85,95 95,15"/>
</g>
</g></g><g transform="translate(805,525) scale(0.35,0.35)"><g transform="" style="fill: rgb(255, 255, 255);">
<g>
	<polygon points="0,5 95,0 100,95 5,100"/>
</g>
</g></g><g transform="translate(910,525) scale(0.35,0.35)"><g transform="" style="fill: rgb(255, 255, 255);">
<g>
	<polygon points="0,10 90,0 100,90 10,100"/>
</g>
</g></g><g transform="translate(980,525) scale(0.35,0.35)"><g transform="" style="fill: rgb(255, 255, 255);">
<g>
	<polygon points="0,10 90,0 100,90 10,100"/>
</g>
</g></g><g transform="translate(35,560) scale(0.35,0.35)"><g transform="" style="fill: rgb(255, 255, 255);">
<g>
	<polygon points="13,0 0,87 87,100 100,13"/>
</g>
</g></g><g transform="translate(70,560) scale(0.35,0.35)"><g transform="" style="fill: rgb(255, 255, 255);">
<polygon points="8,4 4,92 92,96 96,8"/>
</g></g><g transform="translate(105,560) scale(0.35,0.35)"><g transform="" style="fill: rgb(255, 255, 255);">
<polygon points="8,4 4,92 92,96 96,8"/>
</g></g><g transform="translate(140,560) scale(0.35,0.35)"><g transform="" style="fill: rgb(255, 255, 255);">
<polygon points="8,4 4,92 92,96 96,8"/>
</g></g><g transform="translate(175,560) scale(0.35,0.35)"><g transform="" style="fill: rgb(255, 255, 255);">
<polygon points="8,4 4,92 92,96 96,8"/>
</g></g><g transform="translate(210,560) scale(0.35,0.35)"><g transform="" style="fill: rgb(255, 255, 255);">
<g>
	<polygon points="15,5 5,85 85,95 95,15"/>
</g>
</g></g><g transform="translate(280,560) scale(0.35,0.35)"><g transform="" style="fill: rgb(255, 255, 255);">
<polygon points="8,4 4,92 92,96 96,8"/>
</g></g><g transform="translate(385,560) scale(0.35,0.35)"><g transform="" style="fill: rgb(255, 255, 255);">
<g>
	<polygon points="0,10 90,0 100,90 10,100"/>
</g>
</g></g><g transform="translate(455,560) scale(0.35,0.35)"><g transform="" style="fill: rgb(255, 255, 255);">
<g>
	<polygon points="0,12 88,0 100,88 12,100"/>
</g>
</g></g><g transform="translate(490,560) scale(0.35,0.35)"><g transform="" style="fill: rgb(255, 255, 255);">
<g>
	<polygon points="0,17 83,0 100,83 17,100"/>
</g>
</g></g><g transform="translate(665,560) scale(0.35,0.35)"><g transform="" style="fill: rgb(255, 255, 255);">
<g>
	<polygon points="0,12 88,0 100,88 12,100"/>
</g>
</g></g><g transform="translate(700,560) scale(0.35,0.35)"><g transform="" style="fill: rgb(255, 255, 255);">
<polygon points="8,4 4,92 92,96 96,8"/>
</g></g><g transform="translate(805,560) scale(0.35,0.35)"><g transform="" style="fill: rgb(255, 255, 255);">
<g>
	<polygon points="0,10 90,0 100,90 10,100"/>
</g>
</g></g><g transform="translate(875,560) scale(0.35,0.35)"><g transform="" style="fill: rgb(255, 255, 255);">
<g>
	<polygon points="0,15 85,0 100,85 15,100"/>
</g>
</g></g><g transform="translate(0,595) scale(0.35,0.35)"><g transform="" style="fill: rgb(255, 255, 255);">
<g>
	<polygon points="0,5 95,0 100,95 5,100"/>
</g>
</g></g><g transform="translate(105,595) scale(0.35,0.35)"><g transform="" style="fill: rgb(255, 255, 255);">
<g>
	<polygon points="13,0 0,87 87,100 100,13"/>
</g>
</g></g><g transform="translate(140,595) scale(0.35,0.35)"><g transform="" style="fill: rgb(255, 255, 255);">
<polygon points="8,4 4,92 92,96 96,8"/>
</g></g><g transform="translate(175,595) scale(0.35,0.35)"><g transform="" style="fill: rgb(255, 255, 255);">
<polygon points="8,4 4,92 92,96 96,8"/>
</g></g><g transform="translate(280,595) scale(0.35,0.35)"><g transform="" style="fill: rgb(255, 255, 255);">
<g>
	<polygon points="0,10 90,0 100,90 10,100"/>
</g>
</g></g><g transform="translate(350,595) scale(0.35,0.35)"><g transform="" style="fill: rgb(255, 255, 255);">
<g>
	<polygon points="0,5 95,0 100,95 5,100"/>
</g>
</g></g><g transform="translate(420,595) scale(0.35,0.35)"><g transform="" style="fill: rgb(255, 255, 255);">
<g>
	<polygon points="5,25 75,5 95,75 25,95"/>
</g>
</g></g><g transform="translate(455,595) scale(0.35,0.35)"><g transform="" style="fill: rgb(255, 255, 255);">
<g>
	<polygon points="0,17 83,0 100,83 17,100"/>
</g>
</g></g><g transform="translate(525,595) scale(0.35,0.35)"><g transform="" style="fill: rgb(255, 255, 255);">
<g>
	<polygon points="0,5 95,0 100,95 5,100"/>
</g>
</g></g><g transform="translate(595,595) scale(0.35,0.35)"><g transform="" style="fill: rgb(255, 255, 255);">
<g>
	<polygon points="5,25 75,5 95,75 25,95"/>
</g>
</g></g><g transform="translate(630,595) scale(0.35,0.35)"><g transform="" style="fill: rgb(255, 255, 255);">
<polygon points="8,4 4,92 92,96 96,8"/>
</g></g><g transform="translate(665,595) scale(0.35,0.35)"><g transform="" style="fill: rgb(255, 255, 255);">
<polygon points="8,4 4,92 92,96 96,8"/>
</g></g><g transform="translate(700,595) scale(0.35,0.35)"><g transform="" style="fill: rgb(255, 255, 255);">
<polygon points="8,4 4,92 92,96 96,8"/>
</g></g><g transform="translate(840,595) scale(0.35,0.35)"><g transform="" style="fill: rgb(255, 255, 255);">
<g>
	<polygon points="0,5 95,0 100,95 5,100"/>
</g>
</g></g><g transform="translate(910,595) scale(0.35,0.35)"><g transform="" style="fill: rgb(255, 255, 255);">
<g>
	<polygon points="5,25 75,5 95,75 25,95"/>
</g>
</g></g><g transform="translate(945,595) scale(0.35,0.35)"><g transform="" style="fill: rgb(255, 255, 255);">
<g>
	<polygon points="15,5 5,85 85,95 95,15"/>
</g>
</g></g><g transform="translate(0,630) scale(0.35,0.35)"><g transform="" style="fill: rgb(255, 255, 255);">
<polygon points="8,4 4,92 92,96 96,8"/>
</g></g><g transform="translate(35,630) scale(0.35,0.35)"><g transform="" style="fill: rgb(255, 255, 255);">
<g>
	<polygon points="22,0 0,78 78,100 100,22"/>
</g>
</g></g><g transform="translate(175,630) scale(0.35,0.35)"><g transform="" style="fill: rgb(255, 255, 255);">
<polygon points="8,4 4,92 92,96 96,8"/>
</g></g><g transform="translate(210,630) scale(0.35,0.35)"><g transform="" style="fill: rgb(255, 255, 255);">
<g>
	<polygon points="15,5 5,85 85,95 95,15"/>
</g>
</g></g><g transform="translate(350,630) scale(0.35,0.35)"><g transform="" style="fill: rgb(255, 255, 255);">
<polygon points="8,4 4,92 92,96 96,8"/>
</g></g><g transform="translate(385,630) scale(0.35,0.35)"><g transform="" style="fill: rgb(255, 255, 255);">
<g>
	<polygon points="15,5 5,85 85,95 95,15"/>
</g>
</g></g><g transform="translate(525,630) scale(0.35,0.35)"><g transform="" style="fill: rgb(255, 255, 255);">
<g>
	<polygon points="13,0 0,87 87,100 100,13"/>
</g>
</g></g><g transform="translate(560,630) scale(0.35,0.35)"><g transform="" style="fill: rgb(255, 255, 255);">
<g>
	<polygon points="22,0 0,78 78,100 100,22"/>
</g>
</g></g><g transform="translate(665,630) scale(0.35,0.35)"><g transform="" style="fill: rgb(255, 255, 255);">
<polygon points="8,4 4,92 92,96 96,8"/>
</g></g><g transform="translate(700,630) scale(0.35,0.35)"><g transform="" style="fill: rgb(255, 255, 255);">
<g>
	<polygon points="0,17 83,0 100,83 17,100"/>
</g>
</g></g><g transform="translate(840,630) scale(0.35,0.35)"><g transform="" style="fill: rgb(255, 255, 255);">
<polygon points="8,4 4,92 92,96 96,8"/>
</g></g><g transform="translate(875,630) scale(0.35,0.35)"><g transform="" style="fill: rgb(255, 255, 255);">
<g>
	<polygon points="22,0 0,78 78,100 100,22"/>
</g>
</g></g><g transform="translate(980,630) scale(0.35,0.35)"><g transform="" style="fill: rgb(255, 255, 255);">
<g>
	<polygon points="0,15 85,0 100,85 15,100"/>
</g>
</g></g><g transform="translate(0,665) scale(0.35,0.35)"><g transform="" style="fill: rgb(255, 255, 255);">
<polygon points="8,4 4,92 92,96 96,8"/>
</g></g><g transform="translate(35,665) scale(0.35,0.35)"><g transform="" style="fill: rgb(255, 255, 255);">
<polygon points="8,4 4,92 92,96 96,8"/>
</g></g><g transform="translate(140,665) scale(0.35,0.35)"><g transform="" style="fill: rgb(255, 255, 255);">
<g>
	<polygon points="0,12 88,0 100,88 12,100"/>
</g>
</g></g><g transform="translate(175,665) scale(0.35,0.35)"><g transform="" style="fill: rgb(255, 255, 255);">
<polygon points="8,4 4,92 92,96 96,8"/>
</g></g><g transform="translate(350,665) scale(0.35,0.35)"><g transform="" style="fill: rgb(255, 255, 255);">
<g>
	<polygon points="0,10 90,0 100,90 10,100"/>
</g>
</g></g><g transform="translate(455,665) scale(0.35,0.35)"><g transform="" style="fill: rgb(255, 255, 255);">
<g>
	<polygon points="0,5 95,0 100,95 5,100"/>
</g>
</g></g><g transform="translate(560,665) scale(0.35,0.35)"><g transform="" style="fill: rgb(255, 255, 255);">
<g>
	<polygon points="0,10 90,0 100,90 10,100"/>
</g>
</g></g><g transform="translate(665,665) scale(0.35,0.35)"><g transform="" style="fill: rgb(255, 255, 255);">
<polygon points="8,4 4,92 92,96 96,8"/>
</g></g><g transform="translate(735,665) scale(0.35,0.35)"><g transform="" style="fill: rgb(255, 255, 255);">
<g>
	<polygon points="0,5 95,0 100,95 5,100"/>
</g>
</g></g><g transform="translate(805,665) scale(0.35,0.35)"><g transform="" style="fill: rgb(255, 255, 255);">
<g>
	<polygon points="0,12 88,0 100,88 12,100"/>
</g>
</g></g><g transform="translate(840,665) scale(0.35,0.35)"><g transform="" style="fill: rgb(255, 255, 255);">
<polygon points="8,4 4,92 92,96 96,8"/>
</g></g><g transform="translate(875,665) scale(0.35,0.35)"><g transform="" style="fill: rgb(255, 255, 255);">
<polygon points="8,4 4,92 92,96 96,8"/>
</g></g><g transform="translate(910,665) scale(0.35,0.35)"><g transform="" style="fill: rgb(255, 255, 255);">
<g>
	<polygon points="22,0 0,78 78,100 100,22"/>
</g>
</g></g><g transform="translate(0,700) scale(0.35,0.35)"><g transform="" style="fill: rgb(255, 255, 255);">
<g>
	<polygon points="13,0 0,87 87,100 100,13"/>
</g>
</g></g><g transform="translate(35,700) scale(0.35,0.35)"><g transform="" style="fill: rgb(255, 255, 255);">
<polygon points="8,4 4,92 92,96 96,8"/>
</g></g><g transform="translate(70,700) scale(0.35,0.35)"><g transform="" style="fill: rgb(255, 255, 255);">
<g>
	<polygon points="15,5 5,85 85,95 95,15"/>
</g>
</g></g><g transform="translate(140,700) scale(0.35,0.35)"><g transform="" style="fill: rgb(255, 255, 255);">
<g>
	<polygon points="13,0 0,87 87,100 100,13"/>
</g>
</g></g><g transform="translate(175,700) scale(0.35,0.35)"><g transform="" style="fill: rgb(255, 255, 255);">
<polygon points="8,4 4,92 92,96 96,8"/>
</g></g><g transform="translate(210,700) scale(0.35,0.35)"><g transform="" style="fill: rgb(255, 255, 255);">
<g>
	<polygon points="15,5 5,85 85,95 95,15"/>
</g>
</g></g><g transform="translate(280,700) scale(0.35,0.35)"><g transform="" style="fill: rgb(255, 255, 255);">
<g>
	<polygon points="0,5 95,0 100,95 5,100"/>
</g>
</g></g><g transform="translate(420,700) scale(0.35,0.35)"><g transform="" style="fill: rgb(255, 255, 255);">
<g>
	<polygon points="5,25 75,5 95,75 25,95"/>
</g>
</g></g><g transform="translate(455,700) scale(0.35,0.35)"><g transform="" style="fill: rgb(255, 255, 255);">
<polygon points="8,4 4,92 92,96 96,8"/>
</g></g><g transform="translate(525,700) scale(0.35,0.35)"><g transform="" style="fill: rgb(255, 255, 255);">
<g>
	<polygon points="0,5 95,0 100,95 5,100"/>
</g>
</g></g><g transform="translate(595,700) scale(0.35,0.35)"><g transform="" style="fill: rgb(255, 255, 255);">
<g>
	<polygon points="0,15 85,0 100,85 15,100"/>
</g>
</g></g><g transform="translate(665,700) scale(0.35,0.35)"><g transform="" style="fill: rgb(255, 255, 255);">
<polygon points="8,4 4,92 92,96 96,8"/>
</g></g><g transform="translate(700,700) scale(0.35,0.35)"><g transform="" style="fill: rgb(255, 255, 255);">
<polygon points="8,4 4,92 92,96 96,8"/>
</g></g><g transform="translate(735,700) scale(0.35,0.35)"><g transform="" style="fill: rgb(255, 255, 255);">
<polygon points="8,4 4,92 92,96 96,8"/>
</g></g><g transform="translate(770,700) scale(0.35,0.35)"><g transform="" style="fill: rgb(255, 255, 255);">
<polygon points="8,4 4,92 92,96 96,8"/>
</g></g><g transform="translate(805,700) scale(0.35,0.35)"><g transform="" style="fill: rgb(255, 255, 255);">
<polygon points="8,4 4,92 92,96 96,8"/>
</g></g><g transform="translate(840,700) scale(0.35,0.35)"><g transform="" style="fill: rgb(255, 255, 255);">
<polygon points="8,4 4,92 92,96 96,8"/>
</g></g><g transform="translate(875,700) scale(0.35,0.35)"><g transform="" style="fill: rgb(255, 255, 255);">
<polygon points="8,4 4,92 92,96 96,8"/>
</g></g><g transform="translate(910,700) scale(0.35,0.35)"><g transform="" style="fill: rgb(255, 255, 255);">
<polygon points="8,4 4,92 92,96 96,8"/>
</g></g><g transform="translate(945,700) scale(0.35,0.35)"><g transform="" style="fill: rgb(255, 255, 255);">
<g>
	<polygon points="15,5 5,85 85,95 95,15"/>
</g>
</g></g><g transform="translate(280,735) scale(0.35,0.35)"><g transform="" style="fill: rgb(255, 255, 255);">
<polygon points="8,4 4,92 92,96 96,8"/>
</g></g><g transform="translate(350,735) scale(0.35,0.35)"><g transform="" style="fill: rgb(255, 255, 255);">
<g>
	<polygon points="5,25 75,5 95,75 25,95"/>
</g>
</g></g><g transform="translate(385,735) scale(0.35,0.35)"><g transform="" style="fill: rgb(255, 255, 255);">
<g>
	<polygon points="15,5 5,85 85,95 95,15"/>
</g>
</g></g><g transform="translate(455,735) scale(0.35,0.35)"><g transform="" style="fill: rgb(255, 255, 255);">
<polygon points="8,4 4,92 92,96 96,8"/>
</g></g><g transform="translate(490,735) scale(0.35,0.35)"><g transform="" style="fill: rgb(255, 255, 255);">
<polygon points="8,4 4,92 92,96 96,8"/>
</g></g><g transform="translate(525,735) scale(0.35,0.35)"><g transform="" style="fill: rgb(255, 255, 255);">
<polygon points="8,4 4,92 92,96 96,8"/>
</g></g><g transform="translate(630,735) scale(0.35,0.35)"><g transform="" style="fill: rgb(255, 255, 255);">
<g>
	<polygon points="0,12 88,0 100,88 12,100"/>
</g>
</g></g><g transform="translate(665,735) scale(0.35,0.35)"><g transform="" style="fill: rgb(255, 255, 255);">
<polygon points="8,4 4,92 92,96 96,8"/>
</g></g><g transform="translate(700,735) scale(0.35,0.35)"><g transform="" style="fill: rgb(255, 255, 255);">
<polygon points="8,4 4,92 92,96 96,8"/>
</g></g><g transform="translate(840,735) scale(0.35,0.35)"><g transform="" style="fill: rgb(255, 255, 255);">
<polygon points="8,4 4,92 92,96 96,8"/>
</g></g><g transform="translate(875,735) scale(0.35,0.35)"><g transform="" style="fill: rgb(255, 255, 255);">
<polygon points="8,4 4,92 92,96 96,8"/>
</g></g><g transform="translate(280,770) scale(0.35,0.35)"><g transform="" style="fill: rgb(255, 255, 255);">
<polygon points="8,4 4,92 92,96 96,8"/>
</g></g><g transform="translate(420,770) scale(0.35,0.35)"><g transform="" style="fill: rgb(255, 255, 255);">
<g>
	<polygon points="5,25 75,5 95,75 25,95"/>
</g>
</g></g><g transform="translate(455,770) scale(0.35,0.35)"><g transform="" style="fill: rgb(255, 255, 255);">
<polygon points="8,4 4,92 92,96 96,8"/>
</g></g><g transform="translate(525,770) scale(0.35,0.35)"><g transform="" style="fill: rgb(255, 255, 255);">
<g>
	<polygon points="13,0 0,87 87,100 100,13"/>
</g>
</g></g><g transform="translate(560,770) scale(0.35,0.35)"><g transform="" style="fill: rgb(255, 255, 255);">
<polygon points="8,4 4,92 92,96 96,8"/>
</g></g><g transform="translate(595,770) scale(0.35,0.35)"><g transform="" style="fill: rgb(255, 255, 255);">
<polygon points="8,4 4,92 92,96 96,8"/>
</g></g><g transform="translate(630,770) scale(0.35,0.35)"><g transform="" style="fill: rgb(255, 255, 255);">
<polygon points="8,4 4,92 92,96 96,8"/>
</g></g><g transform="translate(665,770) scale(0.35,0.35)"><g transform="" style="fill: rgb(255, 255, 255);">
<polygon points="8,4 4,92 92,96 96,8"/>
</g></g><g transform="translate(700,770) scale(0.35,0.35)"><g transform="" style="fill: rgb(255, 255, 255);">
<polygon points="8,4 4,92 92,96 96,8"/>
</g></g><g transform="translate(770,770) scale(0.35,0.35)"><g transform="" style="fill: rgb(255, 255, 255);">
<g>
	<polygon points="0,15 85,0 100,85 15,100"/>
</g>
</g></g><g transform="translate(840,770) scale(0.35,0.35)"><g transform="" style="fill: rgb(255, 255, 255);">
<polygon points="8,4 4,92 92,96 96,8"/>
</g></g><g transform="translate(875,770) scale(0.35,0.35)"><g transform="" style="fill: rgb(255, 255, 255);">
<g>
	<polygon points="0,17 83,0 100,83 17,100"/>
</g>
</g></g><g transform="translate(280,805) scale(0.35,0.35)"><g transform="" style="fill: rgb(255, 255, 255);">
<polygon points="8,4 4,92 92,96 96,8"/>
</g></g><g transform="translate(350,805) scale(0.35,0.35)"><g transform="" style="fill: rgb(255, 255, 255);">
<g>
	<polygon points="0,12 88,0 100,88 12,100"/>
</g>
</g></g><g transform="translate(385,805) scale(0.35,0.35)"><g transform="" style="fill: rgb(255, 255, 255);">
<g>
	<polygon points="15,5 5,85 85,95 95,15"/>
</g>
</g></g><g transform="translate(455,805) scale(0.35,0.35)"><g transform="" style="fill: rgb(255, 255, 255);">
<polygon points="8,4 4,92 92,96 96,8"/>
</g></g><g transform="translate(595,805) scale(0.35,0.35)"><g transform="" style="fill: rgb(255, 255, 255);">
<g>
	<polygon points="0,10 90,0 100,90 10,100"/>
</g>
</g></g><g transform="translate(665,805) scale(0.35,0.35)"><g transform="" style="fill: rgb(255, 255, 255);">
<polygon points="8,4 4,92 92,96 96,8"/>
</g></g><g transform="translate(700,805) scale(0.35,0.35)"><g transform="" style="fill: rgb(255, 255, 255);">
<polygon points="8,4 4,92 92,96 96,8"/>
</g></g><g transform="translate(840,805) scale(0.35,0.35)"><g transform="" style="fill: rgb(255, 255, 255);">
<polygon points="8,4 4,92 92,96 96,8"/>
</g></g><g transform="translate(945,805) scale(0.35,0.35)"><g transform="" style="fill: rgb(255, 255, 255);">
<g>
	<polygon points="0,12 88,0 100,88 12,100"/>
</g>
</g></g><g transform="translate(980,805) scale(0.35,0.35)"><g transform="" style="fill: rgb(255, 255, 255);">
<g>
	<polygon points="15,5 5,85 85,95 95,15"/>
</g>
</g></g><g transform="translate(280,840) scale(0.35,0.35)"><g transform="" style="fill: rgb(255, 255, 255);">
<polygon points="8,4 4,92 92,96 96,8"/>
</g></g><g transform="translate(315,840) scale(0.35,0.35)"><g transform="" style="fill: rgb(255, 255, 255);">
<polygon points="8,4 4,92 92,96 96,8"/>
</g></g><g transform="translate(350,840) scale(0.35,0.35)"><g transform="" style="fill: rgb(255, 255, 255);">
<g>
	<polygon points="0,17 83,0 100,83 17,100"/>
</g>
</g></g><g transform="translate(420,840) scale(0.35,0.35)"><g transform="" style="fill: rgb(255, 255, 255);">
<g>
	<polygon points="5,25 75,5 95,75 25,95"/>
</g>
</g></g><g transform="translate(455,840) scale(0.35,0.35)"><g transform="" style="fill: rgb(255, 255, 255);">
<g>
	<polygon points="0,17 83,0 100,83 17,100"/>
</g>
</g></g><g transform="translate(525,840) scale(0.35,0.35)"><g transform="" style="fill: rgb(255, 255, 255);">
<g>
	<polygon points="0,12 88,0 100,88 12,100"/>
</g>
</g></g><g transform="translate(560,840) scale(0.35,0.35)"><g transform="" style="fill: rgb(255, 255, 255);">
<g>
	<polygon points="22,0 0,78 78,100 100,22"/>
</g>
</g></g><g transform="translate(630,840) scale(0.35,0.35)"><g transform="" style="fill: rgb(255, 255, 255);">
<g>
	<polygon points="0,12 88,0 100,88 12,100"/>
</g>
</g></g><g transform="translate(665,840) scale(0.35,0.35)"><g transform="" style="fill: rgb(255, 255, 255);">
<polygon points="8,4 4,92 92,96 96,8"/>
</g></g><g transform="translate(700,840) scale(0.35,0.35)"><g transform="" style="fill: rgb(255, 255, 255);">
<polygon points="8,4 4,92 92,96 96,8"/>
</g></g><g transform="translate(735,840) scale(0.35,0.35)"><g transform="" style="fill: rgb(255, 255, 255);">
<polygon points="8,4 4,92 92,96 96,8"/>
</g></g><g transform="translate(770,840) scale(0.35,0.35)"><g transform="" style="fill: rgb(255, 255, 255);">
<polygon points="8,4 4,92 92,96 96,8"/>
</g></g><g transform="translate(805,840) scale(0.35,0.35)"><g transform="" style="fill: rgb(255, 255, 255);">
<polygon points="8,4 4,92 92,96 96,8"/>
</g></g><g transform="translate(840,840) scale(0.35,0.35)"><g transform="" style="fill: rgb(255, 255, 255);">
<polygon points="8,4 4,92 92,96 96,8"/>
</g></g><g transform="translate(875,840) scale(0.35,0.35)"><g transform="" style="fill: rgb(255, 255, 255);">
<g>
	<polygon points="15,5 5,85 85,95 95,15"/>
</g>
</g></g><g transform="translate(945,840) scale(0.35,0.35)"><g transform="" style="fill: rgb(255, 255, 255);">
<g>
	<polygon points="0,10 90,0 100,90 10,100"/>
</g>
</g></g><g transform="translate(280,875) scale(0.35,0.35)"><g transform="" style="fill: rgb(255, 255, 255);">
<g>
	<polygon points="13,0 0,87 87,100 100,13"/>
</g>
</g></g><g transform="translate(315,875) scale(0.35,0.35)"><g transform="" style="fill: rgb(255, 255, 255);">
<g>
	<polygon points="0,17 83,0 100,83 17,100"/>
</g>
</g></g><g transform="translate(490,875) scale(0.35,0.35)"><g transform="" style="fill: rgb(255, 255, 255);">
<g>
	<polygon points="0,12 88,0 100,88 12,100"/>
</g>
</g></g><g transform="translate(525,875) scale(0.35,0.35)"><g transform="" style="fill: rgb(255, 255, 255);">
<polygon points="8,4 4,92 92,96 96,8"/>
</g></g><g transform="translate(560,875) scale(0.35,0.35)"><g transform="" style="fill: rgb(255, 255, 255);">
<polygon points="8,4 4,92 92,96 96,8"/>
</g></g><g transform="translate(595,875) scale(0.35,0.35)"><g transform="" style="fill: rgb(255, 255, 255);">
<polygon points="8,4 4,92 92,96 96,8"/>
</g></g><g transform="translate(630,875) scale(0.35,0.35)"><g transform="" style="fill: rgb(255, 255, 255);">
<polygon points="8,4 4,92 92,96 96,8"/>
</g></g><g transform="translate(665,875) scale(0.35,0.35)"><g transform="" style="fill: rgb(255, 255, 255);">
<g>
	<polygon points="0,17 83,0 100,83 17,100"/>
</g>
</g></g><g transform="translate(735,875) scale(0.35,0.35)"><g transform="" style="fill: rgb(255, 255, 255);">
<polygon points="8,4 4,92 92,96 96,8"/>
</g></g><g transform="translate(980,875) scale(0.35,0.35)"><g transform="" style="fill: rgb(255, 255, 255);">
<g>
	<polygon points="0,5 95,0 100,95 5,100"/>
</g>
</g></g><g transform="translate(350,910) scale(0.35,0.35)"><g transform="" style="fill: rgb(255, 255, 255);">
<g>
	<polygon points="5,25 75,5 95,75 25,95"/>
</g>
</g></g><g transform="translate(385,910) scale(0.35,0.35)"><g transform="" style="fill: rgb(255, 255, 255);">
<g>
	<polygon points="22,0 0,78 78,100 100,22"/>
</g>
</g></g><g transform="translate(490,910) scale(0.35,0.35)"><g transform="" style="fill: rgb(255, 255, 255);">
<g>
	<polygon points="13,0 0,87 87,100 100,13"/>
</g>
</g></g><g transform="translate(525,910) scale(0.35,0.35)"><g transform="" style="fill: rgb(255, 255, 255);">
<polygon points="8,4 4,92 92,96 96,8"/>
</g></g><g transform="translate(560,910) scale(0.35,0.35)"><g transform="" style="fill: rgb(255, 255, 255);">
<polygon points="8,4 4,92 92,96 96,8"/>
</g></g><g transform="translate(595,910) scale(0.35,0.35)"><g transform="" style="fill: rgb(255, 255, 255);">
<g>
	<polygon points="0,17 83,0 100,83 17,100"/>
</g>
</g></g><g transform="translate(700,910) scale(0.35,0.35)"><g transform="" style="fill: rgb(255, 255, 255);">
<g>
	<polygon points="5,25 75,5 95,75 25,95"/>
</g>
</g></g><g transform="translate(735,910) scale(0.35,0.35)"><g transform="" style="fill: rgb(255, 255, 255);">
<g>
	<polygon points="0,17 83,0 100,83 17,100"/>
</g>
</g></g><g transform="translate(805,910) scale(0.35,0.35)"><g transform="" style="fill: rgb(255, 255, 255);">
<g>
	<polygon points="5,25 75,5 95,75 25,95"/>
</g>
</g></g><g transform="translate(840,910) scale(0.35,0.35)"><g transform="" style="fill: rgb(255, 255, 255);">
<g>
	<polygon points="22,0 0,78 78,100 100,22"/>
</g>
</g></g><g transform="translate(910,910) scale(0.35,0.35)"><g transform="" style="fill: rgb(255, 255, 255);">
<g>
	<polygon points="0,12 88,0 100,88 12,100"/>
</g>
</g></g><g transform="translate(945,910) scale(0.35,0.35)"><g transform="" style="fill: rgb(255, 255, 255);">
<polygon points="8,4 4,92 92,96 96,8"/>
</g></g><g transform="translate(980,910) scale(0.35,0.35)"><g transform="" style="fill: rgb(255, 255, 255);">
<polygon points="8,4 4,92 92,96 96,8"/>
</g></g><g transform="translate(315,945) scale(0.35,0.35)"><g transform="" style="fill: rgb(255, 255, 255);">
<g>
	<polygon points="0,5 95,0 100,95 5,100"/>
</g>
</g></g><g transform="translate(385,945) scale(0.35,0.35)"><g transform="" style="fill: rgb(255, 255, 255);">
<g>
	<polygon points="0,10 90,0 100,90 10,100"/>
</g>
</g></g><g transform="translate(455,945) scale(0.35,0.35)"><g transform="" style="fill: rgb(255, 255, 255);">
<g>
	<polygon points="0,15 85,0 100,85 15,100"/>
</g>
</g></g><g transform="translate(525,945) scale(0.35,0.35)"><g transform="" style="fill: rgb(255, 255, 255);">
<g>
	<polygon points="0,10 90,0 100,90 10,100"/>
</g>
</g></g><g transform="translate(630,945) scale(0.35,0.35)"><g transform="" style="fill: rgb(255, 255, 255);">
<g>
	<polygon points="0,15 85,0 100,85 15,100"/>
</g>
</g></g><g transform="translate(770,945) scale(0.35,0.35)"><g transform="" style="fill: rgb(255, 255, 255);">
<g>
	<polygon points="0,15 85,0 100,85 15,100"/>
</g>
</g></g><g transform="translate(840,945) scale(0.35,0.35)"><g transform="" style="fill: rgb(255, 255, 255);">
<polygon points="8,4 4,92 92,96 96,8"/>
</g></g><g transform="translate(875,945) scale(0.35,0.35)"><g transform="" style="fill: rgb(255, 255, 255);">
<polygon points="8,4 4,92 92,96 96,8"/>
</g></g><g transform="translate(910,945) scale(0.35,0.35)"><g transform="" style="fill: rgb(255, 255, 255);">
<g>
	<polygon points="0,17 83,0 100,83 17,100"/>
</g>
</g></g><g transform="translate(980,945) scale(0.35,0.35)"><g transform="" style="fill: rgb(255, 255, 255);">
<g>
	<polygon points="0,10 90,0 100,90 10,100"/>
</g>
</g></g><g transform="translate(280,980) scale(0.35,0.35)"><g transform="" style="fill: rgb(255, 255, 255);">
<g>
	<polygon points="5,25 75,5 95,75 25,95"/>
</g>
</g></g><g transform="translate(315,980) scale(0.35,0.35)"><g transform="" style="fill: rgb(255, 255, 255);">
<polygon points="8,4 4,92 92,96 96,8"/>
</g></g><g transform="translate(350,980) scale(0.35,0.35)"><g transform="" style="fill: rgb(255, 255, 255);">
<g>
	<polygon points="15,5 5,85 85,95 95,15"/>
</g>
</g></g><g transform="translate(420,980) scale(0.35,0.35)"><g transform="" style="fill: rgb(255, 255, 255);">
<g>
	<polygon points="0,15 85,0 100,85 15,100"/>
</g>
</g></g><g transform="translate(665,980) scale(0.35,0.35)"><g transform="" style="fill: rgb(255, 255, 255);">
<g>
	<polygon points="5,25 75,5 95,75 25,95"/>
</g>
</g></g><g transform="translate(700,980) scale(0.35,0.35)"><g transform="" style="fill: rgb(255, 255, 255);">
<g>
	<polygon points="15,5 5,85 85,95 95,15"/>
</g>
</g></g><g transform="translate(840,980) scale(0.35,0.35)"><g transform="" style="fill: rgb(255, 255, 255);">
<g>
	<polygon points="0,10 90,0 100,90 10,100"/>
</g>
</g></g><g transform="translate(0,0) scale(2.4257425742574, 2.4257425742574)"><g transform=" translate(0,101) scale(1,-1) " style="fill: rgb(255, 255, 255);">
<g>
	<path style="fill:none;" d="M89.264,18.062c-1.164,0.153-1.074-2.346-1.238-4.114l-1.229,0.317
		c0.905-0.367-0.021-1.045-1.348-1.281c-3.812-0.44-3.057,2.419-6.014,0.938c0.431,0.031,0.502-0.151,0.938-0.121l-1.521-0.651
		c-0.321,3.089-8.961-1.969-9.289,1.124c-2.172-1.248-0.151-0.744,2.634-2.205l-3.984,0.287c0.05,0.031-1.438,0.327-0.596,0.074
		c-3.029-1.303-0.882,0.27-2.521,1.077c-1.16-0.446,0.904-2.321-2.39-1.812c-4.655,0.604,0.884,2.257-1.913,2.621l-2.023-1.602
		c-3.57,1.224-6.24,0.09-9.253-0.112c-0.683,0.128-1.015,0.294-1.183,0.468c-3.204-0.693-6.719,1.564-9.133,1.039
		c0.563-0.329-1.382-0.248-1.674-0.636l-4.359,0.99c1.926-0.42,1.844-1.341,2.197-2.234c-1.365,0.095-2.004,0.6-2.932,0.718
		c0.565-0.324,1.137-0.655,0.417-1.068l-4.576,1.522c0.266,0.156,0.794,0.216,1.232,0.257c-1.143,0.01-3.615,0.59-5.253-0.161
		c0.145-0.354,0.707-0.685,0.849-1.043c1.373,1.012,2.155,0.149,2.868-0.538c-3.158,0.157-0.787-0.234-2.306-0.888
		c-2.228,0.035-3.144,2.274-2.558,3.049c-2.515-0.351-3.313-0.928-5.886,0l0.489-1.934l-2.36-0.341l1.914-0.788
		c-4.263-0.802-1.241,3.162-5.066,3.042c-0.151,1.76-0.088,4.155-1.229,4.004c0.071,0.995,0.062,1.898-0.008,2.636
		c0.451,0.429,0.849,0.424,0.998-1.765l1.019,3.647c4.131,2.024-0.347,9.72,0.984,15.243c-0.159-0.39-0.381-0.491-0.509-0.539
		c1.323,4.906-1.114,11.003-0.455,12.142l-1.135,0.437c1.742,4.196,1.891,4.694,1.186,9.698c-0.183-0.063-0.51-0.644-0.747,0.147
		c0.839,1.202,1.677,2.413,1.445,5.84l-0.356-0.144l0.187,5.361c-3.496-0.041,2.14,9.178-1.652,10.791
		c0.691,0.709,1.062,2.734,1.381,4.512c2.083,0.65,0.214,3.621,3.959,2.916l-1.914-0.787l2.36-0.342l-0.489-1.934
		c2.572,0.928,3.371,0.352,5.886,0c-0.586,0.773,0.33,3.014,2.558,3.049c1.519-0.652-0.853-1.045,2.306-0.888
		c-0.713-0.688-1.495-1.55-2.868-0.538c-0.142-0.357-0.704-0.689-0.849-1.043c1.638-0.751,4.11-0.171,5.253-0.161
		c-0.438,0.041-0.967,0.101-1.232,0.257l4.576,1.522c0.72-0.413,0.148-0.744-0.417-1.068c0.928,0.118,1.566,0.623,2.932,0.718
		c-0.354-0.894-0.271-1.813-2.197-2.233l4.359,0.989c0.292-0.388,2.237-0.307,1.674-0.635c2.414-0.525,5.929,1.731,9.133,1.038
		c0.168,0.175,0.5,0.341,1.183,0.468c3.013-0.201,5.683-1.336,9.253-0.111l2.023-1.602c2.797,0.363-2.742,2.018,1.913,2.62
		c3.294,0.511,1.229-1.364,2.39-1.812c1.639,0.808-0.51,2.38,2.521,1.076c-0.843-0.252,0.646,0.043,0.596,0.074l3.984,0.287
		c-2.785-1.461-4.806-0.957-2.634-2.205c0.328,3.094,8.968-1.965,9.289,1.125l1.521-0.652c-0.437,0.031-0.508-0.151-0.938-0.12
		c2.957-1.479,2.199,1.379,6.014,0.938c0.593-0.105,1.095-0.302,1.4-0.518c0.039-0.217,0.078-0.438,0.119-0.664
		c-0.052-0.034-0.097-0.07-0.173-0.102l0.183,0.047c0.308-1.702,0.675-3.555,1.328-4.225c-3.791-1.613,1.844-10.832-1.651-10.791
		l0.187-5.361l-0.355,0.144c-0.231-3.427,0.605-4.638,1.445-5.84c-0.238-0.791-0.564-0.212-0.748-0.147
		c-0.705-5.005-0.557-5.502,1.188-9.698l-1.135-0.437c0.658-1.139-1.779-7.236-0.456-12.142c-0.128,0.047-0.351,0.149-0.509,0.539
		c1.332-5.523-3.146-13.219,0.983-15.243l1.019-3.647c0.148,2.19,0.547,2.194,1,1.765C89.202,19.96,89.191,19.056,89.264,18.062z"/>
	<path d="M1.377,48.462l-1.011-1.131C0.371,49.104,0.881,48.324,1.377,48.462z"/>
	<path d="M1.576,48.569c-0.065-0.059-0.133-0.087-0.199-0.106l0.188,0.211L1.576,48.569z"/>
	<path d="M99.868,47.332l-1.013,1.131C99.354,48.324,99.863,49.104,99.868,47.332z"/>
	<path d="M99.454,79.01c0.032,0.427-0.151,0.498-0.122,0.933l-0.655-1.514c3.106-0.32-1.979-8.914,1.132-9.24
		c-1.256-2.16-0.75-0.15-2.218,2.619l0.288-3.964c0.031,0.054,0.33-1.432,0.076-0.593c-1.311-3.014,0.271-0.877,1.081-2.507
		c-0.447-1.154-2.333,0.899-1.82-2.376c0.607-4.633,2.271,0.879,2.636-1.903l-1.609-2.015c1.23-3.553,0.091-6.207-0.112-9.206
		c0.128-0.679,0.295-1.009,0.47-1.175c-0.697-3.188,1.572-6.685,1.045-9.086c-0.33,0.56-0.25-1.376-0.64-1.666L100,32.98
		c-0.423,1.917-1.35,1.833-2.246,2.185c0.094-1.357,0.602-1.993,0.721-2.916c-0.324,0.562-0.658,1.132-1.072,0.416l1.529-4.553
		c0.157,0.265,0.217,0.79,0.258,1.227c0.011-1.137,0.593-3.597-0.162-5.228c-0.355,0.145-0.688,0.705-1.047,0.844
		c1.016,1.368,0.149,2.146-0.543,2.854c0.158-3.145-0.234-0.783-0.892-2.294c0.035-2.216,2.286-3.127,3.063-2.543
		c-0.352-2.502-0.933-3.298,0-5.855l-1.942,0.486l-0.344-2.348l-0.792,1.905c-0.303-1.592,0.074-2.156,0.652-2.449
		c1.058-0.535,2.795-0.146,2.336-3.38l-1.104-0.017c0.424-1.922,0.93-2.583-0.395-4.079c0.668-1.869,1.56,3.193,1.785-1.198
		c-0.57-0.773-0.986-2.439-1.209-3.699c0.439-1.232,1.114,0.52,1.17,1.574c0.08-1.555-0.123-2.571-0.447-3.314
		c-0.612-0.021-1.194-0.125-1.705-0.381c0.648,0.594,1.294,1.188-0.199,1.636c-2.292,0.212-6.193-2.248-8.262-0.374
		c-0.293-0.162-0.399-0.318-0.411-0.466c-0.478,0.131-1.116,0.251-1.813,0.375c-1.869,0.333-4.166,0.704-4.931,1.444
		c-1.623-3.771-10.89,1.835-10.849-1.644l-5.389,0.186l0.143-0.354c-3.443-0.23-4.66,0.604-5.869,1.438
		c-0.795-0.237-0.213-0.562-0.148-0.743c-5.029-0.702-5.529-0.555-9.748,1.179L49.7,1.766c-1.145,0.656-7.273-1.77-12.205-0.453
		c0.048-0.127,0.15-0.347,0.541-0.506c-5.553,1.324-13.288-3.13-15.322,0.979L19.048,2.8c2.2,0.148,2.205,0.543,1.774,0.992
		c-0.742-0.069-1.65-0.079-2.65-0.008c0.18-1.349-3.26-1.003-4.931-1.342c-0.548-0.111-0.909-0.294-0.88-0.64
		C8.14-0.334,4.094,0.238,0.234,0C0.08,0.642,0.412,2.861,0.466,3.913C0.521,2.859,0.787-0.31,1.229,0.922
		c-0.223,1.26-0.231,4.343-0.803,5.116c0.227,4.391,1.118-0.671,1.785,1.198c-1.323,1.495-0.817,2.157-0.394,4.079l-1.104,0.017
		c-0.229,1.617,0.095,2.322,0.605,2.694c1.068,0.779,2.963,0.086,2.384,3.135L2.91,15.256l-0.344,2.348l-1.943-0.486
		c0.933,2.558,0.353,3.353,0,5.855c0.778-0.583,3.029,0.328,3.064,2.543c-0.656,1.511-1.05-0.849-0.892,2.294
		c-0.691-0.709-1.558-1.488-0.541-2.854c-0.36-0.14-0.692-0.7-1.049-0.844c-0.754,1.631-0.172,4.091-0.161,5.228
		c0.041-0.437,0.101-0.961,0.258-1.227l1.53,4.553c-0.415,0.716-0.748,0.147-1.074-0.416c0.119,0.923,0.627,1.559,0.722,2.916
		c-0.897-0.352-1.824-0.269-2.246-2.185l0.995,4.337c-0.39,0.29-0.308,2.225-0.639,1.666c-0.528,2.401,1.741,5.897,1.045,9.086
		c0.174,0.167,0.341,0.497,0.47,1.175c-0.203,2.999-1.343,5.653-0.113,9.206l-1.609,2.015c0.366,2.782,2.028-2.729,2.635,1.903
		c0.513,3.275-1.373,1.222-1.82,2.376c0.811,1.63,2.392-0.507,1.082,2.507c-0.254-0.838,0.044,0.645,0.075,0.593l0.288,3.964
		c-1.469-2.771-0.962-4.779-2.217-2.619c3.109,0.326-1.976,8.92,1.131,9.24l-0.655,1.514c0.03-0.435-0.153-0.506-0.122-0.933
		c-1.488,2.941,1.387,2.188,0.943,5.981c-0.063,0.355-0.162,0.68-0.276,0.949c-0.309,0.729-0.742,1.049-1.011,0.392l0.769,2.946
		c-0.05,0.709-0.428,0.677-0.521,0.158l0.228,4.125L0.82,93.526c0.488,0.641,0.551,1.193,0.871,1.906
		c-0.446,1.141-0.33-0.574-0.718-0.281L0,99.84c3.287-0.188,8.975-0.63,12.329-0.591c-0.029-0.342,0.356-1.573,0.892-1.686
		c0.29-0.062,0.633-0.102,1.006-0.131c0.068-0.007,0.137-0.013,0.207-0.018c1.732-0.124,3.882-0.125,3.738-1.199
		c1,0.071,1.908,0.061,2.65-0.008c0.431,0.449,0.426,0.845-1.774,0.992l3.666,1.014c2.034,4.11,9.77-0.345,15.322,0.979
		c-0.391-0.158-0.493-0.379-0.541-0.506c4.932,1.317,11.061-1.108,12.205-0.453l0.438-1.129c4.217,1.734,4.717,1.881,9.747,1.18
		c-0.062-0.182-0.646-0.506,0.149-0.743c1.209,0.835,2.426,1.669,5.87,1.438l-0.144-0.354l5.388,0.186
		c-0.039-3.479,9.227,2.128,10.85-1.645c0.646,0.627,2.396,0.988,4.052,1.287c1.028,0.186,2.021,0.348,2.692,0.531
		c0.012-0.146,0.117-0.303,0.412-0.465c2.066,1.874,5.969-0.586,8.261-0.375c0.188,0.057,0.341,0.115,0.465,0.176l0.688-2.271
		c-0.389-0.292-0.272,1.422-0.719,0.281c0.321-0.712,1.074-2.165,1.562-2.807L99.32,93.56l0.228-4.123
		c-0.092,0.518-0.47,0.551-0.521-0.16l0.769-2.945c-0.354,0.865-0.993,0.041-1.254-1.196c-0.011-0.049-0.024-0.094-0.033-0.145
		C98.066,81.196,100.941,81.951,99.454,79.01z M88.273,18.933l-1.02,3.647c-4.131,2.024,0.348,9.72-0.982,15.244
		c0.158-0.39,0.379-0.491,0.508-0.539c-1.323,4.906,1.113,11.003,0.455,12.142l1.136,0.437c-1.743,4.196-1.892,4.694-1.187,9.698
		c0.183-0.063,0.51-0.644,0.746,0.147c-0.839,1.202-1.677,2.413-1.445,5.84l0.356-0.144l-0.187,5.361
		c3.496-0.041-2.141,9.178,1.652,10.791c-0.654,0.67-1.021,2.521-1.33,4.226l-0.182-0.048c0.076,0.031,0.121,0.066,0.172,0.102
		c-0.041,0.227-0.08,0.448-0.119,0.664c-0.306,0.216-0.808,0.411-1.399,0.518c-3.813,0.439-3.056-2.42-6.013-0.938
		c0.43-0.031,0.5,0.151,0.938,0.121l-1.521,0.651c-0.32-3.09-8.961,1.969-9.287-1.125c-2.172,1.248-0.152,0.744,2.633,2.205
		l-3.984-0.287c0.051-0.031-1.438-0.326-0.596-0.074c-3.029,1.304-0.883-0.27-2.521-1.076c-1.16,0.445,0.905,2.32-2.389,1.812
		c-4.655-0.604,0.884-2.258-1.913-2.621l-2.024,1.602c-3.569-1.225-6.24-0.09-9.252,0.111c-0.683-0.127-1.015-0.293-1.183-0.467
		c-3.204,0.692-6.719-1.564-9.133-1.039c0.563,0.328-1.382,0.248-1.674,0.635l-4.359-0.989c1.926,0.42,1.844,1.341,2.197,2.233
		c-1.365-0.095-2.004-0.6-2.932-0.717c0.565,0.323,1.137,0.654,0.417,1.067l-4.576-1.522c0.266-0.156,0.794-0.216,1.232-0.257
		c-1.143-0.01-3.615-0.59-5.253,0.161c0.145,0.354,0.707,0.686,0.849,1.043c1.373-1.012,2.155-0.148,2.868,0.538
		c-3.158-0.157-0.787,0.233-2.306,0.888c-2.228-0.035-3.144-2.273-2.558-3.049c-2.515,0.352-3.313,0.928-5.886,0l0.489,1.934
		l-2.36,0.342l1.914,0.787c-3.745,0.705-1.876-2.266-3.959-2.916c-0.318-1.776-0.689-3.803-1.381-4.512
		c3.792-1.613-1.844-10.832,1.652-10.791l-0.187-5.36l0.356,0.143c0.231-3.427-0.606-4.638-1.445-5.84
		c0.237-0.791,0.564-0.212,0.747-0.147c0.705-5.004,0.557-5.502-1.186-9.698l1.135-0.438c-0.659-1.139,1.778-7.236,0.455-12.142
		c0.128,0.047,0.35,0.149,0.509,0.539c-1.331-5.523,3.146-13.22-0.984-15.244l-1.019-3.647c-0.149,2.189-0.547,2.194-0.998,1.765
		c0.069-0.738,0.079-1.642,0.008-2.636c1.142,0.15,1.078-2.244,1.229-4.004c3.825,0.12,0.804-3.844,5.066-3.042l-1.914,0.788
		l2.36,0.341l-0.489,1.934c2.572-0.928,3.371-0.351,5.886,0c-0.586-0.774,0.33-3.014,2.558-3.049
		c1.519,0.653-0.853,1.045,2.306,0.888c-0.713,0.688-1.495,1.55-2.868,0.538c-0.142,0.358-0.704,0.689-0.849,1.043
		c1.638,0.751,4.11,0.171,5.253,0.161c-0.438-0.041-0.967-0.101-1.232-0.257l4.576-1.522c0.72,0.413,0.148,0.744-0.417,1.068
		c0.928-0.118,1.566-0.623,2.932-0.718c-0.354,0.894-0.271,1.814-2.197,2.234l4.359-0.99c0.292,0.388,2.237,0.307,1.674,0.636
		c2.414,0.525,5.929-1.732,9.133-1.039c0.168-0.174,0.5-0.34,1.183-0.468c3.012,0.202,5.683,1.336,9.252,0.112l2.024,1.602
		c2.797-0.364-2.742-2.018,1.913-2.621c3.294-0.51,1.229,1.365,2.389,1.812c1.639-0.808-0.509-2.38,2.521-1.077
		c-0.844,0.252,0.646-0.043,0.596-0.074l3.984-0.287c-2.785,1.461-4.805,0.957-2.633,2.205c0.326-3.093,8.967,1.965,9.287-1.124
		l1.521,0.651c-0.438-0.03-0.508,0.152-0.938,0.121c2.957,1.48,2.198-1.379,6.012-0.938c1.326,0.236,2.254,0.914,1.349,1.281
		l1.228-0.317c0.166,1.768,0.074,4.268,1.24,4.114c-0.072,0.995-0.062,1.898,0.008,2.636C88.818,21.126,88.422,21.123,88.273,18.933
		z"/>
	<path d="M98.669,48.674l0.188-0.211c-0.066,0.02-0.133,0.047-0.199,0.106L98.669,48.674z"/>
	<path d="M89.245,98.929c-0.021,0.219,0.239,0.422,0.831,0.601C90.205,99.286,89.857,99.099,89.245,98.929z"/>
</g>
</g></g><g transform="translate(770,0) scale(2.4257425742574, 2.4257425742574)"><g transform="" style="fill: rgb(255, 255, 255);">
<g>
	<path style="fill:none;" d="M89.264,18.062c-1.164,0.153-1.074-2.346-1.238-4.114l-1.229,0.317
		c0.905-0.367-0.021-1.045-1.348-1.281c-3.812-0.44-3.057,2.419-6.014,0.938c0.431,0.031,0.502-0.151,0.938-0.121l-1.521-0.651
		c-0.321,3.089-8.961-1.969-9.289,1.124c-2.172-1.248-0.151-0.744,2.634-2.205l-3.984,0.287c0.05,0.031-1.438,0.327-0.596,0.074
		c-3.029-1.303-0.882,0.27-2.521,1.077c-1.16-0.446,0.904-2.321-2.39-1.812c-4.655,0.604,0.884,2.257-1.913,2.621l-2.023-1.602
		c-3.57,1.224-6.24,0.09-9.253-0.112c-0.683,0.128-1.015,0.294-1.183,0.468c-3.204-0.693-6.719,1.564-9.133,1.039
		c0.563-0.329-1.382-0.248-1.674-0.636l-4.359,0.99c1.926-0.42,1.844-1.341,2.197-2.234c-1.365,0.095-2.004,0.6-2.932,0.718
		c0.565-0.324,1.137-0.655,0.417-1.068l-4.576,1.522c0.266,0.156,0.794,0.216,1.232,0.257c-1.143,0.01-3.615,0.59-5.253-0.161
		c0.145-0.354,0.707-0.685,0.849-1.043c1.373,1.012,2.155,0.149,2.868-0.538c-3.158,0.157-0.787-0.234-2.306-0.888
		c-2.228,0.035-3.144,2.274-2.558,3.049c-2.515-0.351-3.313-0.928-5.886,0l0.489-1.934l-2.36-0.341l1.914-0.788
		c-4.263-0.802-1.241,3.162-5.066,3.042c-0.151,1.76-0.088,4.155-1.229,4.004c0.071,0.995,0.062,1.898-0.008,2.636
		c0.451,0.429,0.849,0.424,0.998-1.765l1.019,3.647c4.131,2.024-0.347,9.72,0.984,15.243c-0.159-0.39-0.381-0.491-0.509-0.539
		c1.323,4.906-1.114,11.003-0.455,12.142l-1.135,0.437c1.742,4.196,1.891,4.694,1.186,9.698c-0.183-0.063-0.51-0.644-0.747,0.147
		c0.839,1.202,1.677,2.413,1.445,5.84l-0.356-0.144l0.187,5.361c-3.496-0.041,2.14,9.178-1.652,10.791
		c0.691,0.709,1.062,2.734,1.381,4.512c2.083,0.65,0.214,3.621,3.959,2.916l-1.914-0.787l2.36-0.342l-0.489-1.934
		c2.572,0.928,3.371,0.352,5.886,0c-0.586,0.773,0.33,3.014,2.558,3.049c1.519-0.652-0.853-1.045,2.306-0.888
		c-0.713-0.688-1.495-1.55-2.868-0.538c-0.142-0.357-0.704-0.689-0.849-1.043c1.638-0.751,4.11-0.171,5.253-0.161
		c-0.438,0.041-0.967,0.101-1.232,0.257l4.576,1.522c0.72-0.413,0.148-0.744-0.417-1.068c0.928,0.118,1.566,0.623,2.932,0.718
		c-0.354-0.894-0.271-1.813-2.197-2.233l4.359,0.989c0.292-0.388,2.237-0.307,1.674-0.635c2.414-0.525,5.929,1.731,9.133,1.038
		c0.168,0.175,0.5,0.341,1.183,0.468c3.013-0.201,5.683-1.336,9.253-0.111l2.023-1.602c2.797,0.363-2.742,2.018,1.913,2.62
		c3.294,0.511,1.229-1.364,2.39-1.812c1.639,0.808-0.51,2.38,2.521,1.076c-0.843-0.252,0.646,0.043,0.596,0.074l3.984,0.287
		c-2.785-1.461-4.806-0.957-2.634-2.205c0.328,3.094,8.968-1.965,9.289,1.125l1.521-0.652c-0.437,0.031-0.508-0.151-0.938-0.12
		c2.957-1.479,2.199,1.379,6.014,0.938c0.593-0.105,1.095-0.302,1.4-0.518c0.039-0.217,0.078-0.438,0.119-0.664
		c-0.052-0.034-0.097-0.07-0.173-0.102l0.183,0.047c0.308-1.702,0.675-3.555,1.328-4.225c-3.791-1.613,1.844-10.832-1.651-10.791
		l0.187-5.361l-0.355,0.144c-0.231-3.427,0.605-4.638,1.445-5.84c-0.238-0.791-0.564-0.212-0.748-0.147
		c-0.705-5.005-0.557-5.502,1.188-9.698l-1.135-0.437c0.658-1.139-1.779-7.236-0.456-12.142c-0.128,0.047-0.351,0.149-0.509,0.539
		c1.332-5.523-3.146-13.219,0.983-15.243l1.019-3.647c0.148,2.19,0.547,2.194,1,1.765C89.202,19.96,89.191,19.056,89.264,18.062z"/>
	<path d="M1.377,48.462l-1.011-1.131C0.371,49.104,0.881,48.324,1.377,48.462z"/>
	<path d="M1.576,48.569c-0.065-0.059-0.133-0.087-0.199-0.106l0.188,0.211L1.576,48.569z"/>
	<path d="M99.868,47.332l-1.013,1.131C99.354,48.324,99.863,49.104,99.868,47.332z"/>
	<path d="M99.454,79.01c0.032,0.427-0.151,0.498-0.122,0.933l-0.655-1.514c3.106-0.32-1.979-8.914,1.132-9.24
		c-1.256-2.16-0.75-0.15-2.218,2.619l0.288-3.964c0.031,0.054,0.33-1.432,0.076-0.593c-1.311-3.014,0.271-0.877,1.081-2.507
		c-0.447-1.154-2.333,0.899-1.82-2.376c0.607-4.633,2.271,0.879,2.636-1.903l-1.609-2.015c1.23-3.553,0.091-6.207-0.112-9.206
		c0.128-0.679,0.295-1.009,0.47-1.175c-0.697-3.188,1.572-6.685,1.045-9.086c-0.33,0.56-0.25-1.376-0.64-1.666L100,32.98
		c-0.423,1.917-1.35,1.833-2.246,2.185c0.094-1.357,0.602-1.993,0.721-2.916c-0.324,0.562-0.658,1.132-1.072,0.416l1.529-4.553
		c0.157,0.265,0.217,0.79,0.258,1.227c0.011-1.137,0.593-3.597-0.162-5.228c-0.355,0.145-0.688,0.705-1.047,0.844
		c1.016,1.368,0.149,2.146-0.543,2.854c0.158-3.145-0.234-0.783-0.892-2.294c0.035-2.216,2.286-3.127,3.063-2.543
		c-0.352-2.502-0.933-3.298,0-5.855l-1.942,0.486l-0.344-2.348l-0.792,1.905c-0.303-1.592,0.074-2.156,0.652-2.449
		c1.058-0.535,2.795-0.146,2.336-3.38l-1.104-0.017c0.424-1.922,0.93-2.583-0.395-4.079c0.668-1.869,1.56,3.193,1.785-1.198
		c-0.57-0.773-0.986-2.439-1.209-3.699c0.439-1.232,1.114,0.52,1.17,1.574c0.08-1.555-0.123-2.571-0.447-3.314
		c-0.612-0.021-1.194-0.125-1.705-0.381c0.648,0.594,1.294,1.188-0.199,1.636c-2.292,0.212-6.193-2.248-8.262-0.374
		c-0.293-0.162-0.399-0.318-0.411-0.466c-0.478,0.131-1.116,0.251-1.813,0.375c-1.869,0.333-4.166,0.704-4.931,1.444
		c-1.623-3.771-10.89,1.835-10.849-1.644l-5.389,0.186l0.143-0.354c-3.443-0.23-4.66,0.604-5.869,1.438
		c-0.795-0.237-0.213-0.562-0.148-0.743c-5.029-0.702-5.529-0.555-9.748,1.179L49.7,1.766c-1.145,0.656-7.273-1.77-12.205-0.453
		c0.048-0.127,0.15-0.347,0.541-0.506c-5.553,1.324-13.288-3.13-15.322,0.979L19.048,2.8c2.2,0.148,2.205,0.543,1.774,0.992
		c-0.742-0.069-1.65-0.079-2.65-0.008c0.18-1.349-3.26-1.003-4.931-1.342c-0.548-0.111-0.909-0.294-0.88-0.64
		C8.14-0.334,4.094,0.238,0.234,0C0.08,0.642,0.412,2.861,0.466,3.913C0.521,2.859,0.787-0.31,1.229,0.922
		c-0.223,1.26-0.231,4.343-0.803,5.116c0.227,4.391,1.118-0.671,1.785,1.198c-1.323,1.495-0.817,2.157-0.394,4.079l-1.104,0.017
		c-0.229,1.617,0.095,2.322,0.605,2.694c1.068,0.779,2.963,0.086,2.384,3.135L2.91,15.256l-0.344,2.348l-1.943-0.486
		c0.933,2.558,0.353,3.353,0,5.855c0.778-0.583,3.029,0.328,3.064,2.543c-0.656,1.511-1.05-0.849-0.892,2.294
		c-0.691-0.709-1.558-1.488-0.541-2.854c-0.36-0.14-0.692-0.7-1.049-0.844c-0.754,1.631-0.172,4.091-0.161,5.228
		c0.041-0.437,0.101-0.961,0.258-1.227l1.53,4.553c-0.415,0.716-0.748,0.147-1.074-0.416c0.119,0.923,0.627,1.559,0.722,2.916
		c-0.897-0.352-1.824-0.269-2.246-2.185l0.995,4.337c-0.39,0.29-0.308,2.225-0.639,1.666c-0.528,2.401,1.741,5.897,1.045,9.086
		c0.174,0.167,0.341,0.497,0.47,1.175c-0.203,2.999-1.343,5.653-0.113,9.206l-1.609,2.015c0.366,2.782,2.028-2.729,2.635,1.903
		c0.513,3.275-1.373,1.222-1.82,2.376c0.811,1.63,2.392-0.507,1.082,2.507c-0.254-0.838,0.044,0.645,0.075,0.593l0.288,3.964
		c-1.469-2.771-0.962-4.779-2.217-2.619c3.109,0.326-1.976,8.92,1.131,9.24l-0.655,1.514c0.03-0.435-0.153-0.506-0.122-0.933
		c-1.488,2.941,1.387,2.188,0.943,5.981c-0.063,0.355-0.162,0.68-0.276,0.949c-0.309,0.729-0.742,1.049-1.011,0.392l0.769,2.946
		c-0.05,0.709-0.428,0.677-0.521,0.158l0.228,4.125L0.82,93.526c0.488,0.641,0.551,1.193,0.871,1.906
		c-0.446,1.141-0.33-0.574-0.718-0.281L0,99.84c3.287-0.188,8.975-0.63,12.329-0.591c-0.029-0.342,0.356-1.573,0.892-1.686
		c0.29-0.062,0.633-0.102,1.006-0.131c0.068-0.007,0.137-0.013,0.207-0.018c1.732-0.124,3.882-0.125,3.738-1.199
		c1,0.071,1.908,0.061,2.65-0.008c0.431,0.449,0.426,0.845-1.774,0.992l3.666,1.014c2.034,4.11,9.77-0.345,15.322,0.979
		c-0.391-0.158-0.493-0.379-0.541-0.506c4.932,1.317,11.061-1.108,12.205-0.453l0.438-1.129c4.217,1.734,4.717,1.881,9.747,1.18
		c-0.062-0.182-0.646-0.506,0.149-0.743c1.209,0.835,2.426,1.669,5.87,1.438l-0.144-0.354l5.388,0.186
		c-0.039-3.479,9.227,2.128,10.85-1.645c0.646,0.627,2.396,0.988,4.052,1.287c1.028,0.186,2.021,0.348,2.692,0.531
		c0.012-0.146,0.117-0.303,0.412-0.465c2.066,1.874,5.969-0.586,8.261-0.375c0.188,0.057,0.341,0.115,0.465,0.176l0.688-2.271
		c-0.389-0.292-0.272,1.422-0.719,0.281c0.321-0.712,1.074-2.165,1.562-2.807L99.32,93.56l0.228-4.123
		c-0.092,0.518-0.47,0.551-0.521-0.16l0.769-2.945c-0.354,0.865-0.993,0.041-1.254-1.196c-0.011-0.049-0.024-0.094-0.033-0.145
		C98.066,81.196,100.941,81.951,99.454,79.01z M88.273,18.933l-1.02,3.647c-4.131,2.024,0.348,9.72-0.982,15.244
		c0.158-0.39,0.379-0.491,0.508-0.539c-1.323,4.906,1.113,11.003,0.455,12.142l1.136,0.437c-1.743,4.196-1.892,4.694-1.187,9.698
		c0.183-0.063,0.51-0.644,0.746,0.147c-0.839,1.202-1.677,2.413-1.445,5.84l0.356-0.144l-0.187,5.361
		c3.496-0.041-2.141,9.178,1.652,10.791c-0.654,0.67-1.021,2.521-1.33,4.226l-0.182-0.048c0.076,0.031,0.121,0.066,0.172,0.102
		c-0.041,0.227-0.08,0.448-0.119,0.664c-0.306,0.216-0.808,0.411-1.399,0.518c-3.813,0.439-3.056-2.42-6.013-0.938
		c0.43-0.031,0.5,0.151,0.938,0.121l-1.521,0.651c-0.32-3.09-8.961,1.969-9.287-1.125c-2.172,1.248-0.152,0.744,2.633,2.205
		l-3.984-0.287c0.051-0.031-1.438-0.326-0.596-0.074c-3.029,1.304-0.883-0.27-2.521-1.076c-1.16,0.445,0.905,2.32-2.389,1.812
		c-4.655-0.604,0.884-2.258-1.913-2.621l-2.024,1.602c-3.569-1.225-6.24-0.09-9.252,0.111c-0.683-0.127-1.015-0.293-1.183-0.467
		c-3.204,0.692-6.719-1.564-9.133-1.039c0.563,0.328-1.382,0.248-1.674,0.635l-4.359-0.989c1.926,0.42,1.844,1.341,2.197,2.233
		c-1.365-0.095-2.004-0.6-2.932-0.717c0.565,0.323,1.137,0.654,0.417,1.067l-4.576-1.522c0.266-0.156,0.794-0.216,1.232-0.257
		c-1.143-0.01-3.615-0.59-5.253,0.161c0.145,0.354,0.707,0.686,0.849,1.043c1.373-1.012,2.155-0.148,2.868,0.538
		c-3.158-0.157-0.787,0.233-2.306,0.888c-2.228-0.035-3.144-2.273-2.558-3.049c-2.515,0.352-3.313,0.928-5.886,0l0.489,1.934
		l-2.36,0.342l1.914,0.787c-3.745,0.705-1.876-2.266-3.959-2.916c-0.318-1.776-0.689-3.803-1.381-4.512
		c3.792-1.613-1.844-10.832,1.652-10.791l-0.187-5.36l0.356,0.143c0.231-3.427-0.606-4.638-1.445-5.84
		c0.237-0.791,0.564-0.212,0.747-0.147c0.705-5.004,0.557-5.502-1.186-9.698l1.135-0.438c-0.659-1.139,1.778-7.236,0.455-12.142
		c0.128,0.047,0.35,0.149,0.509,0.539c-1.331-5.523,3.146-13.22-0.984-15.244l-1.019-3.647c-0.149,2.189-0.547,2.194-0.998,1.765
		c0.069-0.738,0.079-1.642,0.008-2.636c1.142,0.15,1.078-2.244,1.229-4.004c3.825,0.12,0.804-3.844,5.066-3.042l-1.914,0.788
		l2.36,0.341l-0.489,1.934c2.572-0.928,3.371-0.351,5.886,0c-0.586-0.774,0.33-3.014,2.558-3.049
		c1.519,0.653-0.853,1.045,2.306,0.888c-0.713,0.688-1.495,1.55-2.868,0.538c-0.142,0.358-0.704,0.689-0.849,1.043
		c1.638,0.751,4.11,0.171,5.253,0.161c-0.438-0.041-0.967-0.101-1.232-0.257l4.576-1.522c0.72,0.413,0.148,0.744-0.417,1.068
		c0.928-0.118,1.566-0.623,2.932-0.718c-0.354,0.894-0.271,1.814-2.197,2.234l4.359-0.99c0.292,0.388,2.237,0.307,1.674,0.636
		c2.414,0.525,5.929-1.732,9.133-1.039c0.168-0.174,0.5-0.34,1.183-0.468c3.012,0.202,5.683,1.336,9.252,0.112l2.024,1.602
		c2.797-0.364-2.742-2.018,1.913-2.621c3.294-0.51,1.229,1.365,2.389,1.812c1.639-0.808-0.509-2.38,2.521-1.077
		c-0.844,0.252,0.646-0.043,0.596-0.074l3.984-0.287c-2.785,1.461-4.805,0.957-2.633,2.205c0.326-3.093,8.967,1.965,9.287-1.124
		l1.521,0.651c-0.438-0.03-0.508,0.152-0.938,0.121c2.957,1.48,2.198-1.379,6.012-0.938c1.326,0.236,2.254,0.914,1.349,1.281
		l1.228-0.317c0.166,1.768,0.074,4.268,1.24,4.114c-0.072,0.995-0.062,1.898,0.008,2.636C88.818,21.126,88.422,21.123,88.273,18.933
		z"/>
	<path d="M98.669,48.674l0.188-0.211c-0.066,0.02-0.133,0.047-0.199,0.106L98.669,48.674z"/>
	<path d="M89.245,98.929c-0.021,0.219,0.239,0.422,0.831,0.601C90.205,99.286,89.857,99.099,89.245,98.929z"/>
</g>
</g></g><g transform="translate(0,770) scale(2.4257425742574, 2.4257425742574)"><g transform="" style="fill: rgb(255, 255, 255);">
<g>
	<path style="fill:none;" d="M89.264,18.062c-1.164,0.153-1.074-2.346-1.238-4.114l-1.229,0.317
		c0.905-0.367-0.021-1.045-1.348-1.281c-3.812-0.44-3.057,2.419-6.014,0.938c0.431,0.031,0.502-0.151,0.938-0.121l-1.521-0.651
		c-0.321,3.089-8.961-1.969-9.289,1.124c-2.172-1.248-0.151-0.744,2.634-2.205l-3.984,0.287c0.05,0.031-1.438,0.327-0.596,0.074
		c-3.029-1.303-0.882,0.27-2.521,1.077c-1.16-0.446,0.904-2.321-2.39-1.812c-4.655,0.604,0.884,2.257-1.913,2.621l-2.023-1.602
		c-3.57,1.224-6.24,0.09-9.253-0.112c-0.683,0.128-1.015,0.294-1.183,0.468c-3.204-0.693-6.719,1.564-9.133,1.039
		c0.563-0.329-1.382-0.248-1.674-0.636l-4.359,0.99c1.926-0.42,1.844-1.341,2.197-2.234c-1.365,0.095-2.004,0.6-2.932,0.718
		c0.565-0.324,1.137-0.655,0.417-1.068l-4.576,1.522c0.266,0.156,0.794,0.216,1.232,0.257c-1.143,0.01-3.615,0.59-5.253-0.161
		c0.145-0.354,0.707-0.685,0.849-1.043c1.373,1.012,2.155,0.149,2.868-0.538c-3.158,0.157-0.787-0.234-2.306-0.888
		c-2.228,0.035-3.144,2.274-2.558,3.049c-2.515-0.351-3.313-0.928-5.886,0l0.489-1.934l-2.36-0.341l1.914-0.788
		c-4.263-0.802-1.241,3.162-5.066,3.042c-0.151,1.76-0.088,4.155-1.229,4.004c0.071,0.995,0.062,1.898-0.008,2.636
		c0.451,0.429,0.849,0.424,0.998-1.765l1.019,3.647c4.131,2.024-0.347,9.72,0.984,15.243c-0.159-0.39-0.381-0.491-0.509-0.539
		c1.323,4.906-1.114,11.003-0.455,12.142l-1.135,0.437c1.742,4.196,1.891,4.694,1.186,9.698c-0.183-0.063-0.51-0.644-0.747,0.147
		c0.839,1.202,1.677,2.413,1.445,5.84l-0.356-0.144l0.187,5.361c-3.496-0.041,2.14,9.178-1.652,10.791
		c0.691,0.709,1.062,2.734,1.381,4.512c2.083,0.65,0.214,3.621,3.959,2.916l-1.914-0.787l2.36-0.342l-0.489-1.934
		c2.572,0.928,3.371,0.352,5.886,0c-0.586,0.773,0.33,3.014,2.558,3.049c1.519-0.652-0.853-1.045,2.306-0.888
		c-0.713-0.688-1.495-1.55-2.868-0.538c-0.142-0.357-0.704-0.689-0.849-1.043c1.638-0.751,4.11-0.171,5.253-0.161
		c-0.438,0.041-0.967,0.101-1.232,0.257l4.576,1.522c0.72-0.413,0.148-0.744-0.417-1.068c0.928,0.118,1.566,0.623,2.932,0.718
		c-0.354-0.894-0.271-1.813-2.197-2.233l4.359,0.989c0.292-0.388,2.237-0.307,1.674-0.635c2.414-0.525,5.929,1.731,9.133,1.038
		c0.168,0.175,0.5,0.341,1.183,0.468c3.013-0.201,5.683-1.336,9.253-0.111l2.023-1.602c2.797,0.363-2.742,2.018,1.913,2.62
		c3.294,0.511,1.229-1.364,2.39-1.812c1.639,0.808-0.51,2.38,2.521,1.076c-0.843-0.252,0.646,0.043,0.596,0.074l3.984,0.287
		c-2.785-1.461-4.806-0.957-2.634-2.205c0.328,3.094,8.968-1.965,9.289,1.125l1.521-0.652c-0.437,0.031-0.508-0.151-0.938-0.12
		c2.957-1.479,2.199,1.379,6.014,0.938c0.593-0.105,1.095-0.302,1.4-0.518c0.039-0.217,0.078-0.438,0.119-0.664
		c-0.052-0.034-0.097-0.07-0.173-0.102l0.183,0.047c0.308-1.702,0.675-3.555,1.328-4.225c-3.791-1.613,1.844-10.832-1.651-10.791
		l0.187-5.361l-0.355,0.144c-0.231-3.427,0.605-4.638,1.445-5.84c-0.238-0.791-0.564-0.212-0.748-0.147
		c-0.705-5.005-0.557-5.502,1.188-9.698l-1.135-0.437c0.658-1.139-1.779-7.236-0.456-12.142c-0.128,0.047-0.351,0.149-0.509,0.539
		c1.332-5.523-3.146-13.219,0.983-15.243l1.019-3.647c0.148,2.19,0.547,2.194,1,1.765C89.202,19.96,89.191,19.056,89.264,18.062z"/>
	<path d="M1.377,48.462l-1.011-1.131C0.371,49.104,0.881,48.324,1.377,48.462z"/>
	<path d="M1.576,48.569c-0.065-0.059-0.133-0.087-0.199-0.106l0.188,0.211L1.576,48.569z"/>
	<path d="M99.868,47.332l-1.013,1.131C99.354,48.324,99.863,49.104,99.868,47.332z"/>
	<path d="M99.454,79.01c0.032,0.427-0.151,0.498-0.122,0.933l-0.655-1.514c3.106-0.32-1.979-8.914,1.132-9.24
		c-1.256-2.16-0.75-0.15-2.218,2.619l0.288-3.964c0.031,0.054,0.33-1.432,0.076-0.593c-1.311-3.014,0.271-0.877,1.081-2.507
		c-0.447-1.154-2.333,0.899-1.82-2.376c0.607-4.633,2.271,0.879,2.636-1.903l-1.609-2.015c1.23-3.553,0.091-6.207-0.112-9.206
		c0.128-0.679,0.295-1.009,0.47-1.175c-0.697-3.188,1.572-6.685,1.045-9.086c-0.33,0.56-0.25-1.376-0.64-1.666L100,32.98
		c-0.423,1.917-1.35,1.833-2.246,2.185c0.094-1.357,0.602-1.993,0.721-2.916c-0.324,0.562-0.658,1.132-1.072,0.416l1.529-4.553
		c0.157,0.265,0.217,0.79,0.258,1.227c0.011-1.137,0.593-3.597-0.162-5.228c-0.355,0.145-0.688,0.705-1.047,0.844
		c1.016,1.368,0.149,2.146-0.543,2.854c0.158-3.145-0.234-0.783-0.892-2.294c0.035-2.216,2.286-3.127,3.063-2.543
		c-0.352-2.502-0.933-3.298,0-5.855l-1.942,0.486l-0.344-2.348l-0.792,1.905c-0.303-1.592,0.074-2.156,0.652-2.449
		c1.058-0.535,2.795-0.146,2.336-3.38l-1.104-0.017c0.424-1.922,0.93-2.583-0.395-4.079c0.668-1.869,1.56,3.193,1.785-1.198
		c-0.57-0.773-0.986-2.439-1.209-3.699c0.439-1.232,1.114,0.52,1.17,1.574c0.08-1.555-0.123-2.571-0.447-3.314
		c-0.612-0.021-1.194-0.125-1.705-0.381c0.648,0.594,1.294,1.188-0.199,1.636c-2.292,0.212-6.193-2.248-8.262-0.374
		c-0.293-0.162-0.399-0.318-0.411-0.466c-0.478,0.131-1.116,0.251-1.813,0.375c-1.869,0.333-4.166,0.704-4.931,1.444
		c-1.623-3.771-10.89,1.835-10.849-1.644l-5.389,0.186l0.143-0.354c-3.443-0.23-4.66,0.604-5.869,1.438
		c-0.795-0.237-0.213-0.562-0.148-0.743c-5.029-0.702-5.529-0.555-9.748,1.179L49.7,1.766c-1.145,0.656-7.273-1.77-12.205-0.453
		c0.048-0.127,0.15-0.347,0.541-0.506c-5.553,1.324-13.288-3.13-15.322,0.979L19.048,2.8c2.2,0.148,2.205,0.543,1.774,0.992
		c-0.742-0.069-1.65-0.079-2.65-0.008c0.18-1.349-3.26-1.003-4.931-1.342c-0.548-0.111-0.909-0.294-0.88-0.64
		C8.14-0.334,4.094,0.238,0.234,0C0.08,0.642,0.412,2.861,0.466,3.913C0.521,2.859,0.787-0.31,1.229,0.922
		c-0.223,1.26-0.231,4.343-0.803,5.116c0.227,4.391,1.118-0.671,1.785,1.198c-1.323,1.495-0.817,2.157-0.394,4.079l-1.104,0.017
		c-0.229,1.617,0.095,2.322,0.605,2.694c1.068,0.779,2.963,0.086,2.384,3.135L2.91,15.256l-0.344,2.348l-1.943-0.486
		c0.933,2.558,0.353,3.353,0,5.855c0.778-0.583,3.029,0.328,3.064,2.543c-0.656,1.511-1.05-0.849-0.892,2.294
		c-0.691-0.709-1.558-1.488-0.541-2.854c-0.36-0.14-0.692-0.7-1.049-0.844c-0.754,1.631-0.172,4.091-0.161,5.228
		c0.041-0.437,0.101-0.961,0.258-1.227l1.53,4.553c-0.415,0.716-0.748,0.147-1.074-0.416c0.119,0.923,0.627,1.559,0.722,2.916
		c-0.897-0.352-1.824-0.269-2.246-2.185l0.995,4.337c-0.39,0.29-0.308,2.225-0.639,1.666c-0.528,2.401,1.741,5.897,1.045,9.086
		c0.174,0.167,0.341,0.497,0.47,1.175c-0.203,2.999-1.343,5.653-0.113,9.206l-1.609,2.015c0.366,2.782,2.028-2.729,2.635,1.903
		c0.513,3.275-1.373,1.222-1.82,2.376c0.811,1.63,2.392-0.507,1.082,2.507c-0.254-0.838,0.044,0.645,0.075,0.593l0.288,3.964
		c-1.469-2.771-0.962-4.779-2.217-2.619c3.109,0.326-1.976,8.92,1.131,9.24l-0.655,1.514c0.03-0.435-0.153-0.506-0.122-0.933
		c-1.488,2.941,1.387,2.188,0.943,5.981c-0.063,0.355-0.162,0.68-0.276,0.949c-0.309,0.729-0.742,1.049-1.011,0.392l0.769,2.946
		c-0.05,0.709-0.428,0.677-0.521,0.158l0.228,4.125L0.82,93.526c0.488,0.641,0.551,1.193,0.871,1.906
		c-0.446,1.141-0.33-0.574-0.718-0.281L0,99.84c3.287-0.188,8.975-0.63,12.329-0.591c-0.029-0.342,0.356-1.573,0.892-1.686
		c0.29-0.062,0.633-0.102,1.006-0.131c0.068-0.007,0.137-0.013,0.207-0.018c1.732-0.124,3.882-0.125,3.738-1.199
		c1,0.071,1.908,0.061,2.65-0.008c0.431,0.449,0.426,0.845-1.774,0.992l3.666,1.014c2.034,4.11,9.77-0.345,15.322,0.979
		c-0.391-0.158-0.493-0.379-0.541-0.506c4.932,1.317,11.061-1.108,12.205-0.453l0.438-1.129c4.217,1.734,4.717,1.881,9.747,1.18
		c-0.062-0.182-0.646-0.506,0.149-0.743c1.209,0.835,2.426,1.669,5.87,1.438l-0.144-0.354l5.388,0.186
		c-0.039-3.479,9.227,2.128,10.85-1.645c0.646,0.627,2.396,0.988,4.052,1.287c1.028,0.186,2.021,0.348,2.692,0.531
		c0.012-0.146,0.117-0.303,0.412-0.465c2.066,1.874,5.969-0.586,8.261-0.375c0.188,0.057,0.341,0.115,0.465,0.176l0.688-2.271
		c-0.389-0.292-0.272,1.422-0.719,0.281c0.321-0.712,1.074-2.165,1.562-2.807L99.32,93.56l0.228-4.123
		c-0.092,0.518-0.47,0.551-0.521-0.16l0.769-2.945c-0.354,0.865-0.993,0.041-1.254-1.196c-0.011-0.049-0.024-0.094-0.033-0.145
		C98.066,81.196,100.941,81.951,99.454,79.01z M88.273,18.933l-1.02,3.647c-4.131,2.024,0.348,9.72-0.982,15.244
		c0.158-0.39,0.379-0.491,0.508-0.539c-1.323,4.906,1.113,11.003,0.455,12.142l1.136,0.437c-1.743,4.196-1.892,4.694-1.187,9.698
		c0.183-0.063,0.51-0.644,0.746,0.147c-0.839,1.202-1.677,2.413-1.445,5.84l0.356-0.144l-0.187,5.361
		c3.496-0.041-2.141,9.178,1.652,10.791c-0.654,0.67-1.021,2.521-1.33,4.226l-0.182-0.048c0.076,0.031,0.121,0.066,0.172,0.102
		c-0.041,0.227-0.08,0.448-0.119,0.664c-0.306,0.216-0.808,0.411-1.399,0.518c-3.813,0.439-3.056-2.42-6.013-0.938
		c0.43-0.031,0.5,0.151,0.938,0.121l-1.521,0.651c-0.32-3.09-8.961,1.969-9.287-1.125c-2.172,1.248-0.152,0.744,2.633,2.205
		l-3.984-0.287c0.051-0.031-1.438-0.326-0.596-0.074c-3.029,1.304-0.883-0.27-2.521-1.076c-1.16,0.445,0.905,2.32-2.389,1.812
		c-4.655-0.604,0.884-2.258-1.913-2.621l-2.024,1.602c-3.569-1.225-6.24-0.09-9.252,0.111c-0.683-0.127-1.015-0.293-1.183-0.467
		c-3.204,0.692-6.719-1.564-9.133-1.039c0.563,0.328-1.382,0.248-1.674,0.635l-4.359-0.989c1.926,0.42,1.844,1.341,2.197,2.233
		c-1.365-0.095-2.004-0.6-2.932-0.717c0.565,0.323,1.137,0.654,0.417,1.067l-4.576-1.522c0.266-0.156,0.794-0.216,1.232-0.257
		c-1.143-0.01-3.615-0.59-5.253,0.161c0.145,0.354,0.707,0.686,0.849,1.043c1.373-1.012,2.155-0.148,2.868,0.538
		c-3.158-0.157-0.787,0.233-2.306,0.888c-2.228-0.035-3.144-2.273-2.558-3.049c-2.515,0.352-3.313,0.928-5.886,0l0.489,1.934
		l-2.36,0.342l1.914,0.787c-3.745,0.705-1.876-2.266-3.959-2.916c-0.318-1.776-0.689-3.803-1.381-4.512
		c3.792-1.613-1.844-10.832,1.652-10.791l-0.187-5.36l0.356,0.143c0.231-3.427-0.606-4.638-1.445-5.84
		c0.237-0.791,0.564-0.212,0.747-0.147c0.705-5.004,0.557-5.502-1.186-9.698l1.135-0.438c-0.659-1.139,1.778-7.236,0.455-12.142
		c0.128,0.047,0.35,0.149,0.509,0.539c-1.331-5.523,3.146-13.22-0.984-15.244l-1.019-3.647c-0.149,2.189-0.547,2.194-0.998,1.765
		c0.069-0.738,0.079-1.642,0.008-2.636c1.142,0.15,1.078-2.244,1.229-4.004c3.825,0.12,0.804-3.844,5.066-3.042l-1.914,0.788
		l2.36,0.341l-0.489,1.934c2.572-0.928,3.371-0.351,5.886,0c-0.586-0.774,0.33-3.014,2.558-3.049
		c1.519,0.653-0.853,1.045,2.306,0.888c-0.713,0.688-1.495,1.55-2.868,0.538c-0.142,0.358-0.704,0.689-0.849,1.043
		c1.638,0.751,4.11,0.171,5.253,0.161c-0.438-0.041-0.967-0.101-1.232-0.257l4.576-1.522c0.72,0.413,0.148,0.744-0.417,1.068
		c0.928-0.118,1.566-0.623,2.932-0.718c-0.354,0.894-0.271,1.814-2.197,2.234l4.359-0.99c0.292,0.388,2.237,0.307,1.674,0.636
		c2.414,0.525,5.929-1.732,9.133-1.039c0.168-0.174,0.5-0.34,1.183-0.468c3.012,0.202,5.683,1.336,9.252,0.112l2.024,1.602
		c2.797-0.364-2.742-2.018,1.913-2.621c3.294-0.51,1.229,1.365,2.389,1.812c1.639-0.808-0.509-2.38,2.521-1.077
		c-0.844,0.252,0.646-0.043,0.596-0.074l3.984-0.287c-2.785,1.461-4.805,0.957-2.633,2.205c0.326-3.093,8.967,1.965,9.287-1.124
		l1.521,0.651c-0.438-0.03-0.508,0.152-0.938,0.121c2.957,1.48,2.198-1.379,6.012-0.938c1.326,0.236,2.254,0.914,1.349,1.281
		l1.228-0.317c0.166,1.768,0.074,4.268,1.24,4.114c-0.072,0.995-0.062,1.898,0.008,2.636C88.818,21.126,88.422,21.123,88.273,18.933
		z"/>
	<path d="M98.669,48.674l0.188-0.211c-0.066,0.02-0.133,0.047-0.199,0.106L98.669,48.674z"/>
	<path d="M89.245,98.929c-0.021,0.219,0.239,0.422,0.831,0.601C90.205,99.286,89.857,99.099,89.245,98.929z"/>
</g>
</g></g><g transform="translate(70,70) scale(0.35, 0.35)"><g transform="" style="fill: rgb(255, 255, 255);">
<g>

	<polygon points="13,0 0,87 87,100 100,13"/>
	<polygon points="100,17 183,0 200,83 117,100"/>
	<polygon points="200,10 290,0 300,90 200,100"/>

	<polygon points="5,125 75,105 195,175 25,195"/>
	<polygon points="65,63 62,232 228,238 236,68"/>
	<polygon points="215,105 205,185 285,195 295,115"/>

	<polygon points="0,215 85,200 100,285 15,300"/>
	<polygon points="100,212 188,200 200,288 112,300"/>
	<polygon points="222,200 200,278 278,300 300,222"/>


</g>
</g></g><g transform="translate(840,70) scale(0.35, 0.35)"><g transform="" style="fill: rgb(255, 255, 255);">
<g>

	<polygon points="13,0 0,87 87,100 100,13"/>
	<polygon points="100,17 183,0 200,83 117,100"/>
	<polygon points="200,10 290,0 300,90 200,100"/>

	<polygon points="5,125 75,105 195,175 25,195"/>
	<polygon points="65,63 62,232 228,238 236,68"/>
	<polygon points="215,105 205,185 285,195 295,115"/>

	<polygon points="0,215 85,200 100,285 15,300"/>
	<polygon points="100,212 188,200 200,288 112,300"/>
	<polygon points="222,200 200,278 278,300 300,222"/>


</g>
</g></g><g transform="translate(70,840) scale(0.35, 0.35)"><g transform="" style="fill: rgb(255, 255, 255);">
<g>

	<polygon points="13,0 0,87 87,100 100,13"/>
	<polygon points="100,17 183,0 200,83 117,100"/>
	<polygon points="200,10 290,0 300,90 200,100"/>

	<polygon points="5,125 75,105 195,175 25,195"/>
	<polygon points="65,63 62,232 228,238 236,68"/>
	<polygon points="215,105 205,185 285,195 295,115"/>

	<polygon points="0,215 85,200 100,285 15,300"/>
	<polygon points="100,212 188,200 200,288 112,300"/>
	<polygon points="222,200 200,278 278,300 300,222"/>


</g>
</g></g></g></mask></defs></g><rect x="0" y="0" width="1015" height="1015" fill="url(#grad)" mask="url(#gmask)" /></g></svg>